<?xml version="1.0" standalone="no"?>
<!DOCTYPE svg PUBLIC "-//W3C//DTD SVG 1.1//EN" "http://www.w3.org/Graphics/SVG/1.1/DTD/svg11.dtd" >
<svg xmlns="http://www.w3.org/2000/svg">
<metadata>
This is a custom SVG webfont generated by Font Squirrel.
Copyright   : cThe digitally encoded machine readable outline data for producing the typefaces licensed to you is copyrighted C 2000 by The Foundry London All Rights Reserved
</metadata>
<defs>
<font id="FoundryMonolineBold" horiz-adv-x="1232" >
<font-face units-per-em="2048" ascent="1487" descent="-561" />
<missing-glyph horiz-adv-x="460" />
<glyph unicode=" "  horiz-adv-x="460" />
<glyph unicode="&#x09;" horiz-adv-x="460" />
<glyph unicode="&#xa0;" horiz-adv-x="460" />
<glyph unicode="!" horiz-adv-x="610" d="M164 129q0 141 141 141t141 -141q0 -145 -141 -145t-141 145zM190 389v977h226v-977h-226z" />
<glyph unicode="&#x22;" horiz-adv-x="983" d="M199 922v444h217v-444h-217zM567 922v444h217v-444h-217z" />
<glyph unicode="#" d="M39 420v192h215l55 195h-170v192h223l117 422h219l-118 -422h231l117 422h198l-98 -422h166v-192h-215l-55 -195h170v-192h-222l-116 -420h-219l116 420h-229l-117 -420h-219l117 420h-166zM475 612h227l56 195h-228z" />
<glyph unicode="$" horiz-adv-x="1189" d="M121 322h233q0 -74 54.5 -104t183.5 -30q145 0 190 48.5t45 150.5q0 129 -48 162t-197 45q-20 2 -31 2q-66 6 -101.5 10t-88 16.5t-81 28t-62.5 44t-50 67.5t-27.5 95t-11.5 130q0 188 90 273.5t266 103.5v197h205v-195q174 -14 266.5 -87t92.5 -243h-234q0 74 -49 102.5 t-178 28.5q-131 0 -177 -41t-46 -145q0 -27 4 -47.5t14 -35.5t17.5 -26.5t25.5 -19.5t27.5 -13t35 -9.5t33.5 -5.5t38 -4t36 -3q227 -20 295 -47q127 -49 158 -203q14 -66 14 -159q0 -201 -90 -295.5t-283 -112.5v-203h-205v201q-174 12 -269 84t-95 240z" />
<glyph unicode="%" horiz-adv-x="1769" d="M131 950v19v18q0 57 1 86t6 78t15.5 75.5t32 60.5t52 51.5t79 29.5t109.5 12q86 0 145.5 -23.5t88 -54t44 -92t17.5 -101.5t2 -122v-18q0 -6 -6 -148q-8 -135 -75 -200.5t-216 -65.5q-86 0 -144.5 24.5t-88 55.5t-44 93.5t-16.5 102t-2 119.5zM291 969q0 -174 22 -219 q27 -51 113 -52q61 0 85 16.5t34 47.5q20 61 20 207q0 168 -24 217q-23 49 -115 49q-43 0 -68.5 -9t-34 -20.5t-14.5 -31.5q-18 -55 -18 -205zM412 0l770 1366h176l-772 -1366h-174zM1047 379v18v19q0 57 1 85.5t6 78t15 76t31.5 60.5t52.5 51t79 29.5t109 12.5 q86 0 145.5 -23.5t88.5 -54.5t44 -92t17 -101t2 -122v-19q0 -6 -6 -147q-8 -135 -74.5 -200.5t-216.5 -65.5q-86 0 -144 24.5t-88 55t-44 93t-16 102.5t-2 120zM1206 397q0 -174 23 -219q25 -51 112 -51q61 0 85 16.5t34 46.5q20 61 21 207q0 168 -25 217q-23 49 -115 50 q-43 0 -68.5 -9.5t-33.5 -20.5t-14 -32q-19 -55 -19 -205z" />
<glyph unicode="&#x26;" horiz-adv-x="1265" d="M111 383q0 119 26.5 195.5t110.5 113.5q-78 35 -101.5 114t-23.5 200q0 205 108.5 289.5t341.5 84.5q100 0 176 -15t139.5 -52t97.5 -106.5t34 -170.5h-227q0 78 -47.5 105.5t-172.5 27.5q-139 0 -181 -41t-42 -147q0 -104 48 -141t175 -37h299v104h222v-104h118v-213 h-118v-119q0 -137 -20.5 -224t-90.5 -153q-119 -111 -381 -110q-127 0 -210 15t-150.5 57t-99 122t-31.5 205zM338 387q0 -117 60.5 -155.5t207.5 -38.5q166 0 216 61t50 217v119h-299q-145 0 -190 -36t-45 -167z" />
<glyph unicode="'" horiz-adv-x="614" d="M199 922v444h217v-444h-217z" />
<glyph unicode="(" horiz-adv-x="749" d="M127 627q0 553 66 766q45 143 161.5 200.5t343.5 57.5v-205q-57 0 -91 -3t-78 -14.5t-73.5 -40t-45.5 -73.5q-55 -147 -56 -686q0 -537 56 -684q16 -45 45.5 -74t73.5 -40t78 -14t91 -3v-205q-227 0 -343.5 57.5t-161.5 200.5q-66 213 -66 760z" />
<glyph unicode=")" horiz-adv-x="749" d="M51 -186q57 0 91 3t78 14t74 40t46 74q55 147 55 684q0 539 -55 686q-16 45 -46 73.5t-74 40t-77.5 14.5t-91.5 3v205q227 0 344 -57.5t162 -200.5q66 -213 66 -766q0 -547 -66 -760q-45 -143 -161.5 -200.5t-344.5 -57.5v205z" />
<glyph unicode="*" horiz-adv-x="1085" d="M33 948l63 180l346 -104v342h199v-342l346 104l66 -180l-348 -106l210 -275l-159 -110l-215 274l-211 -274l-162 110l213 275z" />
<glyph unicode="+" d="M68 395v209h446v395h201v-395h450v-209h-450v-395h-203v395h-444z" />
<glyph unicode="," horiz-adv-x="493" d="M20 -172l30 30l27 26q5 5 20.5 22.5t18.5 25t11 22.5t10 28.5t4 33t2 41.5v217h215v-217q0 -94 -20.5 -157.5t-77.5 -120.5l-90 -88z" />
<glyph unicode="-" horiz-adv-x="1105" d="M133 395v209h840v-209h-840z" />
<glyph unicode="." horiz-adv-x="495" d="M106 129q0 141 141.5 141t141.5 -141q0 -145 -141.5 -145t-141.5 145z" />
<glyph unicode="/" horiz-adv-x="1091" d="M31 -231l811 1837h219l-811 -1837h-219z" />
<glyph unicode="0" horiz-adv-x="1171" d="M113 532.5q-2 49.5 0 98.5v51q0 281 18 379q47 229 248 293q86 27 207 26q137 0 231 -40t141.5 -89t71 -152.5t26.5 -170t3 -201.5v-45v-31v-109q0 -36 -3 -99.5t-9.5 -97.5t-17.5 -86t-28.5 -79.5t-43 -64.5t-60.5 -56.5t-80 -39t-103.5 -27.5t-128 -8t-129 9 t-103.5 26.5t-79.5 42t-60.5 55t-43 66.5t-28.5 77t-17.5 86t-8 91t-3 95.5zM346 682q0 -297 23 -371q18 -59 64 -87.5t152.5 -28.5t152.5 28.5t65 87.5q23 74 22.5 371t-22.5 371q-18 59 -64.5 87.5t-153 28.5t-153.5 -29.5t-63 -86.5q-23 -74 -23 -371z" />
<glyph unicode="1" horiz-adv-x="1011" d="M74 1026l377 340h211v-1159h317v-207h-862v207h313v864l-211 -203z" />
<glyph unicode="2" horiz-adv-x="1136" d="M106 0v338q0 84 24 147.5t58.5 100.5t94 66.5t108.5 44t126 36t124 37.5q88 31 120 70t32 129q0 119 -44 160.5t-184 41.5q-127 0 -175 -28.5t-48 -106.5h-229q0 100 33.5 170t98 107t140.5 52t176 15q244 0 353.5 -91t109.5 -320q0 -115 -25.5 -189.5t-99.5 -124 t-123 -68t-176 -52.5q-27 -8 -41 -13q-147 -41 -183 -77.5t-36 -143.5v-94h682v-207h-916z" />
<glyph unicode="3" horiz-adv-x="1173" d="M100 328h232q0 -74 52 -103.5t181 -29.5q135 0 187.5 40.5t52.5 163.5q0 137 -39 170t-201 33h-192v209h192q135 0 181.5 33t46.5 147q0 109 -42 144.5t-186 35.5q-129 0 -181 -30.5t-52 -104.5h-232q0 100 36 171t103.5 107t145.5 51t180 15q244 0 351.5 -81.5 t107.5 -301.5q0 -115 -21.5 -179t-101.5 -99q84 -37 109.5 -108.5t25.5 -190.5q0 -250 -114.5 -343t-356.5 -93q-102 0 -180 15t-145.5 51t-103.5 107t-36 171z" />
<glyph unicode="4" horiz-adv-x="1163" d="M80 344v195l588 827h219v-815h194v-207h-194v-344h-217v344h-590zM326 551h344v502z" />
<glyph unicode="5" horiz-adv-x="1173" d="M131 328h227q0 -78 45.5 -105.5t167.5 -27.5q147 0 196.5 47t49.5 190q0 158 -38 211t-181 53q-129 0 -177 -35.5t-48 -107.5h-226v813h859v-209h-635v-321q70 70 231 69q254 0 350.5 -99t96.5 -366q0 -250 -115 -353t-363 -103q-203 0 -321.5 75.5t-118.5 268.5z" />
<glyph unicode="6" horiz-adv-x="1163" d="M113 627q0 313 24 450q57 303 459 303q428 0 428 -344h-227q0 74 -46 104.5t-153 30.5q-82 0 -131 -15t-73.5 -57t-32 -82t-11.5 -120q-2 -18 -2 -63q98 72 250 71q244 0 348.5 -102.5t104.5 -360.5q0 -459 -461 -458q-158 0 -271.5 61t-160.5 184q-45 115 -45 398z M352 451q0 -143 53.5 -199.5t182.5 -56.5q133 0 182 51t49 194q0 158 -43 207t-168 49q-133 0 -194.5 -58t-61.5 -187z" />
<glyph unicode="7" horiz-adv-x="993" d="M35 1157v209h923v-199l-598 -1167h-254l599 1157h-670z" />
<glyph unicode="8" horiz-adv-x="1171" d="M113 381q0 125 26.5 208t108.5 120q-78 35 -100.5 109.5t-22.5 197.5q0 203 109.5 283.5t351 80.5t351.5 -80.5t110 -283.5q0 -123 -23 -198t-100 -109q82 -37 108.5 -120t26.5 -208q0 -121 -34 -202t-101.5 -122t-146.5 -57t-191 -16q-231 0 -352 84t-121 313zM344 397 q0 -125 53.5 -163.5t188.5 -38.5t188 38.5t53 163.5t-53 164t-188 39t-188.5 -39t-53.5 -164zM354 989.5q0 -106.5 46 -143.5t185.5 -37t185.5 37t46 143.5t-47 144t-184 37.5t-184.5 -37.5t-47.5 -144z" />
<glyph unicode="9" horiz-adv-x="1163" d="M113 922q0 459 460 458q158 0 271.5 -61.5t161.5 -183.5q45 -115 45 -398q0 -311 -25 -450q-57 -303 -459 -303q-428 0 -428 344h228q0 -74 46 -104.5t152 -30.5q82 0 131 15t74 57t32 82t11 120q2 18 2 63q-98 -72 -250 -71q-244 0 -348 102.5t-104 360.5zM344 924 q0 -158 43 -207t168 -49q133 0 194.5 58t61.5 187q0 143 -53 199.5t-183 56.5q-133 0 -182 -51t-49 -194z" />
<glyph unicode=":" horiz-adv-x="493" d="M104 129q0 141 141.5 141t141.5 -141q0 -145 -141.5 -145t-141.5 145zM104 874q0 141 141.5 141.5t141.5 -141.5q0 -145 -141.5 -145t-141.5 145z" />
<glyph unicode=";" horiz-adv-x="493" d="M20 -172l30 30l27 26q5 5 20.5 22.5t18.5 25t11 22.5t10 28.5t4 33t2 41.5v217h215v-217q0 -94 -20.5 -157.5t-77.5 -120.5l-90 -88zM115 874q0 141 141 141.5t141 -141.5q0 -145 -141 -145t-141 145z" />
<glyph unicode="&#x3c;" horiz-adv-x="1212" d="M57 401v197l1018 401l80 -202l-793 -297l793 -299l-78 -201z" />
<glyph unicode="=" horiz-adv-x="1212" d="M57 221v209h1098v-209h-1098zM57 580v208h1098v-208h-1098z" />
<glyph unicode="&#x3e;" horiz-adv-x="1212" d="M57 203l793 297l-793 299l78 200l1020 -401v-197l-1018 -401z" />
<glyph unicode="?" horiz-adv-x="950" d="M37 1036q0 225 110.5 314.5t321.5 89.5q221 0 329.5 -91.5t108.5 -314.5q0 -240 -172 -340q-33 -18 -73.5 -38.5t-55 -29t-31 -27.5t-19.5 -46t-3 -78v-86h-234v119q0 193 99 276q39 35 113.5 65t110.5 67.5t36 117.5q0 109 -41 155t-164 46t-167 -46t-44 -153h-225z M297 129q0 141 141.5 141t141.5 -141q0 -145 -141.5 -145t-141.5 145z" />
<glyph unicode="@" horiz-adv-x="1558" d="M131 645q0 217 23.5 347t95.5 223.5t196.5 129t331.5 35.5q156 0 257.5 -14t182 -51t123.5 -106.5t64.5 -174t21.5 -260.5q0 -356 -110 -463q-59 -55 -133 -72.5t-195 -15.5v64q-96 -76 -233 -76q-115 0 -188.5 31.5t-106.5 96t-43 129t-10 167.5q0 82 5 135t24.5 113.5 t55 96.5t101 59.5t160.5 23.5q137 0 233 -78v64h139v-684q154 0 154 426q0 150 -22.5 236.5t-87 133.5t-149.5 60.5t-239 13.5q-98 0 -170.5 -11.5t-126 -29.5t-88.5 -56t-57.5 -79t-33.5 -111.5t-15 -138.5t-4 -174q0 -115 2 -183.5t12 -144.5t31.5 -116.5t56.5 -81.5 t90.5 -59.5t131 -30t180.5 -11.5q170 0 279.5 31t170.5 131l33 -18l61 -37l33 -19q-59 -102 -171 -157.5t-201 -65.5t-216 -10q-147 0 -251.5 17.5t-177 62.5t-115.5 100t-67 152.5t-31 196.5t-7 253zM563 635q0 -160 32 -219.5t155 -59.5q133 0 185 57.5t52 221.5t-52 222 t-187 58q-121 0 -153 -61t-32 -219z" />
<glyph unicode="A" horiz-adv-x="1333" d="M16 0l529 1366h248l524 -1366h-264l-127 348h-533l-125 -348h-252zM469 557h383l-190 541z" />
<glyph unicode="B" horiz-adv-x="1343" d="M156 0v1366h487h33q74 0 111.5 -1t103 -7t100.5 -18.5t80 -37t68.5 -60.5t41 -92t19.5 -128v-16q0 -248 -127 -301q82 -37 109.5 -111t27.5 -188q0 -211 -100 -304q-23 -20 -50.5 -36.5t-49 -27.5t-59.5 -18.5t-54 -11.5t-62.5 -6t-56.5 -2h-63h-60h-499zM395 217h244 q209 0 256 21q74 33 74 163q0 111 -41 148q-20 18 -37 25.5t-76 12.5t-176 5h-244v-375zM395 805h248q168 0 217 16q98 33 98 158q0 51 -15 85t-34.5 51.5t-66.5 25.5t-78 9t-100 1h-35h-234v-346z" />
<glyph unicode="C" horiz-adv-x="1343" d="M131 684q0 74 1 116t4 106.5t11.5 101t22.5 89t35.5 83t52.5 67.5t74 57.5t97 40t125 27.5t155 8q252 0 382 -89t130 -308h-238q0 104 -59.5 141t-233.5 37q-203 0 -260 -90t-57 -389t56 -388t259 -89q176 0 234.5 35.5t58.5 140.5h238q0 -219 -130.5 -308t-381.5 -89 q-94 0 -170 12t-133.5 29.5t-100.5 53.5t-71.5 66.5t-48 87t-30 95.5t-15.5 111.5t-6 116.5t-1 128z" />
<glyph unicode="D" horiz-adv-x="1382" d="M156 0v1366h506q199 0 313.5 -40t185.5 -146q53 -78 71.5 -185.5t18.5 -312.5q0 -207 -17 -313.5t-71 -184.5q-72 -104 -186.5 -144t-312.5 -40h-508zM393 217h258q82 0 124 3t90 17.5t69.5 43t42 81t27 129t6.5 191.5t-6.5 191.5t-27 130t-43 82t-70.5 44t-91 18.5 t-123 3h-256v-934z" />
<glyph unicode="E" horiz-adv-x="1218" d="M156 0v1366h940v-215h-703v-346h682v-213h-682v-375h703v-217h-940z" />
<glyph unicode="F" horiz-adv-x="1185" d="M156 0v1366h919v-215h-678v-346h660v-213h-660v-592h-241z" />
<glyph unicode="G" horiz-adv-x="1390" d="M131 684q0 74 1 116t4 106.5t11.5 101t22.5 89t35.5 83t52.5 67.5t74 57.5t97 40t125 27.5t155 8q250 0 389 -89t139 -308h-240q0 102 -66.5 140t-240.5 38q-203 0 -260 -90t-57 -389q0 -156 10 -241t44 -142t91 -75.5t162 -18.5q68 0 118 9t85 22.5t57.5 43t35.5 55 t19 75t8.5 86t2.5 102.5h-336v209h569v-807h-190v102q-123 -119 -390 -118q-154 0 -258 41t-156 93t-79 161.5t-31 183.5t-4 221z" />
<glyph unicode="H" horiz-adv-x="1351" d="M156 0v1366h241v-559h557v559h242v-1366h-242v590h-557v-590h-241z" />
<glyph unicode="I" horiz-adv-x="552" d="M156 0v1366h241v-1366h-241z" />
<glyph unicode="J" horiz-adv-x="1122" d="M61 381h234q0 -111 51 -145.5t172 -34.5q78 0 123 12t64.5 49t23.5 71t4 109v924h242v-920q0 -135 -6 -172q-49 -291 -451 -290q-219 0 -338 88t-119 309z" />
<glyph unicode="K" horiz-adv-x="1314" d="M156 0v1366h241v-553l578 553h325l-727 -678l734 -688h-353l-557 549v-549h-241z" />
<glyph unicode="L" horiz-adv-x="1087" d="M156 0v1366h241v-1149h678v-217h-919z" />
<glyph unicode="M" horiz-adv-x="1687" d="M156 0v1366h319l371 -1087l368 1089h318v-1368h-225v1061l-351 -1061h-233l-346 1061v-1061h-221z" />
<glyph unicode="N" horiz-adv-x="1351" d="M156 0v1366h245l570 -973v973h225v-1366h-248l-567 981v-981h-225z" />
<glyph unicode="O" horiz-adv-x="1386" d="M131 684q0 109 2 166t12.5 145t31 133.5t61.5 101.5t100 83.5t148 47t206 19.5q162 0 271.5 -37.5t167 -87t86 -156t33.5 -183t5 -230.5q0 -109 -3 -176.5t-15 -150.5t-34.5 -132t-62.5 -101t-100.5 -80t-146.5 -45t-199 -17q-162 0 -272.5 38.5t-166.5 89t-85 158 t-34 185t-5 229.5zM373 682q0 -299 57 -388t262 -89t263.5 90t58.5 389t-57.5 388t-264.5 89q-205 0 -262 -89t-57 -390z" />
<glyph unicode="P" horiz-adv-x="1269" d="M156 0v1366h479q80 0 129 -2t115.5 -10t106.5 -23.5t85 -45.5t69.5 -73t41 -107.5t16.5 -146.5q0 -115 -30.5 -193.5t-75.5 -121.5t-127 -65.5t-151 -27.5t-179 -5h-238v-545h-241zM397 762h234q197 0 239 18q86 39 86 174q0 139 -86 179q-47 18 -239 18h-234v-389z" />
<glyph unicode="Q" horiz-adv-x="1386" d="M131 684q0 109 2 166t12.5 145t31 133.5t61.5 101.5t100 83.5t148 47t206 19.5q162 0 271.5 -37.5t167 -87t86 -156t33.5 -183t5 -230.5v-97q0 -32 -3 -95.5t-9 -98.5t-17.5 -89t-28.5 -86t-44 -71.5t-60.5 -64.5t-79.5 -46.5t-104 -33.5l92 -205l-188 -88l-125 273 q-127 0 -220 18t-154.5 63.5t-98.5 97.5t-55.5 141t-23.5 171t-5 209zM373 682q0 -272 43 -371.5t180 -107.5l-70 162l189 84l102 -240q121 18 159 118.5t38 356.5q0 299 -57.5 388t-264.5 89q-205 0 -262 -89t-57 -390z" />
<glyph unicode="R" horiz-adv-x="1345" d="M156 0v1366h479q80 0 129 -2t116.5 -10t107.5 -22.5t85 -43t68.5 -70.5t40 -103.5t16.5 -141.5q0 -127 -29.5 -200t-103.5 -103q27 -8 49.5 -23.5t35.5 -31t23.5 -43t15.5 -45t7 -51.5t2 -48v-50v-44v-334h-235v354v86q0 25 -13.5 54.5t-24 37t-56.5 15.5t-82 8h-130h-28 h-232v-555h-241zM397 772h248q209 0 246 16q70 33 70 175q0 109 -41 145q-20 18 -37 25.5t-75 12.5t-177 5h-234v-379z" />
<glyph unicode="S" horiz-adv-x="1331" d="M115 381h241q0 -104 64.5 -142t247.5 -38q188 0 247.5 47t59.5 168q0 94 -34 123.5t-120 35.5q-49 4 -153.5 6.5t-166 5.5t-144.5 23.5t-129 58.5t-79.5 112.5t-33.5 183.5q0 229 132 322t412 93q268 0 405.5 -88t137.5 -309h-237q0 113 -69 146.5t-241 33.5 q-135 0 -199.5 -20.5t-82 -57t-17.5 -116.5q0 -88 36 -117t118 -35q49 -4 133 -5t140.5 -4t130 -12.5t121.5 -33t93.5 -64.5t67 -109.5t21.5 -162.5q-2 -229 -137.5 -335.5t-415.5 -106.5q-268 0 -408.5 87t-140.5 310z" />
<glyph unicode="T" horiz-adv-x="1146" d="M37 1151v215h1073v-215h-416v-1151h-241v1151h-416z" />
<glyph unicode="U" horiz-adv-x="1335" d="M147 686v680h242v-680q0 -264 12 -326q25 -111 123 -139q53 -16 144 -16q61 0 104 7t74 21.5t50 37t30.5 54t15.5 73.5t5 95q0 17 1 35q0 37 -2 78v80v680h242v-680q0 -223 -4 -287q-23 -416 -516.5 -415.5t-515.5 415.5q-5 64 -5 287z" />
<glyph unicode="V" horiz-adv-x="1273" d="M6 1366h258l375 -1061l375 1061h254l-514 -1366h-238z" />
<glyph unicode="W" horiz-adv-x="1839" d="M74 1366h235l221 -1038l263 1038h256l264 -1038l223 1038h229l-317 -1366h-254l-276 1098l-281 -1098h-252z" />
<glyph unicode="X" horiz-adv-x="1286" d="M43 0l459 694l-447 672h277l313 -496l311 496h277l-449 -672l459 -694h-276l-326 518l-324 -518h-274z" />
<glyph unicode="Y" horiz-adv-x="1251" d="M4 1366h281l344 -561l342 561h276l-502 -776v-590h-241v590z" />
<glyph unicode="Z" horiz-adv-x="1288" d="M123 0v209l754 942h-754v215h1042v-211l-751 -938h751v-217h-1042z" />
<glyph unicode="[" horiz-adv-x="749" d="M172 -391v2042h526v-205h-301v-1632h301v-205h-526z" />
<glyph unicode="\" horiz-adv-x="1091" d="M31 1606h219l811 -1837h-219z" />
<glyph unicode="]" horiz-adv-x="749" d="M51 -186h301v1632h-301v205h527v-2042h-527v205z" />
<glyph unicode="^" d="M61 455l463 929h181l466 -931l-206 -80l-353 727l-344 -727z" />
<glyph unicode="_" horiz-adv-x="1118" d="M0 -186h1118v-209h-1118v209z" />
<glyph unicode="`" horiz-adv-x="903" d="M184 1366h254l281 -258h-254z" />
<glyph unicode="a" horiz-adv-x="1107" d="M86 303q0 84 24.5 145.5t62.5 95.5t98.5 53t113.5 24.5t127 5.5h256q0 113 -35 152.5t-176 39.5q-45 0 -73.5 -3t-66.5 -12t-57.5 -34t-19.5 -61h-225q0 92 36.5 155.5t105.5 95t142.5 44t169.5 12.5q424 0 424 -365v-651h-207v82q-113 -98 -311 -98q-190 0 -289.5 72.5 t-99.5 246.5zM317 307q0 -70 41 -101.5t154 -31.5q166 0 213 59.5t47 204.5h-268q-109 0 -148 -26.5t-39 -104.5z" />
<glyph unicode="b" horiz-adv-x="1153" d="M129 0v1427h231v-501q88 90 304 90q100 0 171.5 -25.5t113.5 -67.5t65.5 -113t31 -141.5t7.5 -170.5q0 -88 -5.5 -148.5t-30 -136.5t-68.5 -121t-126 -76.5t-196 -31.5q-182 0 -289 96v-80h-209zM356 497.5q0 -184.5 52.5 -244.5t203.5 -60q127 0 168 63t41 241.5 t-41 242t-168 63.5q-152 0 -204 -60.5t-52 -245z" />
<glyph unicode="c" horiz-adv-x="1081" d="M100 504q0 96 7.5 162.5t35 138.5t75.5 114t134 69.5t207 27.5q426 0 426 -316h-219q0 39 -18.5 63.5t-54.5 34t-60.5 11.5t-67.5 2q-150 0 -191.5 -64.5t-41.5 -247t42 -247t191 -64.5q43 0 67.5 2.5t60.5 11.5t54.5 33.5t18.5 63.5h219q0 -315 -426 -315 q-121 0 -207 28.5t-134 71.5t-75.5 115.5t-35 140.5t-7.5 164z" />
<glyph unicode="d" horiz-adv-x="1153" d="M100 498q0 125 14.5 210t54.5 159.5t120 111.5t200 37q215 0 304 -90v501h231v-1427h-209v80q-106 -96 -303 -96q-84 0 -148.5 16t-107.5 42t-73.5 69t-46 81.5t-24 98t-10.5 100.5t-2 107zM332 497.5q0 -178.5 41 -241.5t168 -63q152 0 204 60t52 244.5t-52.5 245 t-203.5 60.5q-127 0 -168 -63.5t-41 -242z" />
<glyph unicode="e" horiz-adv-x="1116" d="M100 487q0 98 9.5 170t37 143.5t76.5 116t134 72t202 27.5q92 0 163 -16.5t119 -42t80.5 -71.5t51 -89t29 -114t12.5 -127t2 -144h-684q0 -133 49 -185.5t192 -52.5q211 0 213 125h218q0 -315 -439 -315q-145 0 -240.5 35.5t-142.5 108.5t-64.5 155.5t-17.5 203.5z M336 600h450q0 63 -5 97t-26.5 68t-69.5 47t-126 13q-139 0 -181 -54t-42 -171z" />
<glyph unicode="f" horiz-adv-x="927" d="M25 807v192h159v101q0 166 86 250q98 94 301 94q344 0 344 -242h-219q-6 57 -135 58q-25 0 -45 -3.5t-34.5 -6.5t-26 -13t-19.5 -15t-13 -21.5t-8 -21.5t-4 -27t-1 -28v-31v-32v-62h344v-192h-338v-807h-232v807h-159z" />
<glyph unicode="g" horiz-adv-x="1148" d="M100 506q0 125 14.5 209t55.5 157.5t123 108.5t207 35q203 0 311 -96v79h209v-893q0 -162 -8 -217q-12 -84 -60.5 -144t-118 -89t-138 -41t-146.5 -12q-82 0 -152.5 14t-135 47t-102.5 98.5t-38 155.5h229q0 -55 49.5 -87t143.5 -32q223 0 241 135q4 35 4 154 q-96 -88 -286 -88q-109 0 -186.5 31.5t-118.5 76t-63.5 119t-28 133t-5.5 146.5zM332 506q0 -178 40 -237.5t167 -59.5q152 0 202 56.5t50 240.5q0 186 -50.5 245.5t-201.5 59.5q-127 0 -167 -62.5t-40 -242.5z" />
<glyph unicode="h" horiz-adv-x="1120" d="M129 0v1427h231v-491q104 80 258 80q82 0 144.5 -15.5t102.5 -35t69 -60.5t42 -70.5t20.5 -86t8.5 -87t1 -92.5v-24v-545h-232v526v54v51q0 10 -1 40.5t-5 39t-10 30t-15.5 26.5t-22.5 18.5t-31.5 15.5t-42 6t-54.5 4q-49 0 -87 -10t-61.5 -22.5t-41 -41t-25.5 -46 t-12.5 -60.5t-4.5 -63v-70v-33v-465h-231z" />
<glyph unicode="i" horiz-adv-x="489" d="M117 1255q0 125 127 125t127 -125q0 -59 -33 -93t-94.5 -34t-94 34t-32.5 93zM129 0v999h231v-999h-231z" />
<glyph unicode="j" horiz-adv-x="489" d="M-395 -143h225q4 -66 141 -66q88 0 123 32t35 118v1058h231v-1056q0 -340 -389 -340q-162 0 -264 60.5t-102 193.5zM117 1255q0 125 127 125t127 -125q0 -59 -33 -93t-94.5 -34t-94 34t-32.5 93z" />
<glyph unicode="k" horiz-adv-x="1103" d="M129 0v1427h231v-827l431 399h286l-493 -458l501 -541h-297l-426 467v-467h-233z" />
<glyph unicode="l" horiz-adv-x="487" d="M129 0v1427h231v-1427h-231z" />
<glyph unicode="m" horiz-adv-x="1644" d="M129 0v999h201v-88q104 104 272 105q170 0 262 -105q115 104 301 105q260 0 336 -174q8 -18 14.5 -40t9.5 -38t4 -43t1 -39v-44v-40v-598h-232v602v16q0 55 -2 81t-16 57.5t-47 43t-88 11.5q-33 0 -59.5 -6t-47 -15.5t-36 -27t-24.5 -31.5t-16.5 -40.5t-11.5 -42 t-5 -47.5t-1 -46v-49v-45v-461h-229v602v52q0 9 -2 42t-8.5 41t-16.5 28.5t-27.5 27t-42 12.5t-59.5 6q-41 0 -72.5 -10t-52 -22.5t-36 -42t-22.5 -45t-11.5 -59.5t-5.5 -56.5t0 -62.5t1 -56v-457h-231z" />
<glyph unicode="n" horiz-adv-x="1120" d="M129 0v999h201v-79q109 96 288 96q82 0 144.5 -15.5t102.5 -35t69 -60.5t42 -70.5t20.5 -86t8.5 -87t1 -92.5v-24v-545h-232v526v54v51q0 10 -1 40.5t-5 39t-10 30t-15.5 26.5t-22.5 18.5t-31.5 15.5t-42 6t-54.5 4q-49 0 -87 -10t-61.5 -22.5t-41 -41t-25.5 -46 t-12.5 -60.5t-4.5 -63v-70v-33v-465h-231z" />
<glyph unicode="o" horiz-adv-x="1150" d="M100 499.5q0 155.5 22.5 250t84.5 153.5q115 113 368.5 113t368.5 -113q61 -59 84 -153.5t23 -250t-22.5 -249.5t-84.5 -154q-115 -113 -368.5 -112.5t-368.5 112.5q-61 59 -84 153.5t-23 250zM332 499.5q0 -182.5 43 -247t200.5 -64.5t200.5 64.5t43 247t-43 247 t-200.5 64.5t-200.5 -64.5t-43 -247z" />
<glyph unicode="p" horiz-adv-x="1153" d="M129 -391v1390h209v-79q110 96 296 96h15q131 -2 213 -36t123 -107.5t54.5 -157.5t13.5 -217q0 -84 -7.5 -147.5t-33 -136.5t-70.5 -120t-126 -78.5t-193 -31.5q-178 0 -263 88v-463h-231zM358 497.5q0 -186.5 52.5 -248t201.5 -61.5q127 0 168 64.5t41 245t-42 247 t-167 66.5q-150 0 -202 -63.5t-52 -250z" />
<glyph unicode="q" horiz-adv-x="1144" d="M100 498q0 127 14.5 211t54.5 159.5t121 111.5t206 36q205 0 313 -96v79h207v-1390h-232v463q-94 -88 -290 -88q-111 0 -188 32.5t-116.5 76.5t-60 123t-25 134.5t-4.5 147.5zM332 497.5q0 -180.5 41 -245t164 -64.5q147 0 198 61.5t51 248t-51 250t-198 63.5 q-123 0 -164 -66.5t-41 -247z" />
<glyph unicode="r" horiz-adv-x="952" d="M129 0v999h201v-90q100 106 274 107q164 0 244 -77t80 -239h-223q0 66 -33 89.5t-109 23.5q-137 0 -180 -119q-23 -61 -23 -260v-434h-231z" />
<glyph unicode="s" horiz-adv-x="1064" d="M90 299h213q0 -68 41 -98.5t160 -32.5q18 -1 34 -1q111 0 152 24q47 28 49 88q0 7 1 13q0 33 -9 55q-10 26 -39.5 38t-53.5 15t-79 6q-14 0 -41 2q-70 4 -104.5 7t-93 13t-88 29.5t-62.5 52.5t-46 85q-12 45 -12 104q0 9 1 18q2 90 35.5 151.5t98 93t143.5 44.5 q68 11 156 10h29q199 -4 299.5 -75t100.5 -241h-213q0 72 -41 98.5t-143 30.5q-18 1 -35 1q-109 0 -150 -23q-47 -27 -49 -84v-14q0 -31 7 -51q9 -24 37 -35t47.5 -13t70.5 -6q207 -12 252 -22q170 -37 203 -189q9 -38 8 -85v-19q-2 -90 -36 -151.5t-97.5 -95.5t-143.5 -47 q-69 -12 -158 -12q-14 0 -28 1q-205 4 -310.5 72.5t-105.5 242.5z" />
<glyph unicode="t" horiz-adv-x="972" d="M37 807v192h160v367h231v-367h408v-192h-408v-500q0 -72 32 -103.5t113 -31.5q147 0 148 127h213q0 -168 -103.5 -241.5t-269.5 -73.5q-365 0 -364 323v500h-160z" />
<glyph unicode="u" horiz-adv-x="1120" d="M115 430v25v544h231v-526v-53v-51q0 -10 1 -41t5 -39t10.5 -29.5t15.5 -27t22.5 -18.5t32 -15t42 -6.5t53.5 -4.5q49 0 87 10.5t61.5 22.5t41 41t26 46.5t12.5 60.5t4 62v71v33v464h231v-999h-200v80q-109 -96 -289 -96q-82 0 -144.5 15t-102.5 34.5t-68.5 60.5t-42 71 t-20.5 86t-8 87t-1 92z" />
<glyph unicode="v" horiz-adv-x="1073" d="M29 999h247l265 -733l264 733h239l-391 -999h-231z" />
<glyph unicode="w" horiz-adv-x="1501" d="M37 999h227l174 -745l201 745h225l203 -745l174 745h223l-270 -999h-231l-205 778l-211 -778h-240z" />
<glyph unicode="x" horiz-adv-x="1097" d="M31 0l381 508l-367 491h272l236 -340l240 340h264l-371 -489l381 -510h-272l-250 360l-252 -360h-262z" />
<glyph unicode="y" horiz-adv-x="1062" d="M35 999h246l256 -718l245 718h246l-539 -1388h-243l170 414z" />
<glyph unicode="z" horiz-adv-x="1024" d="M92 0v199l553 608h-553v192h840v-198l-549 -604h549v-197h-840z" />
<glyph unicode="{" horiz-adv-x="819" d="M135 651q0 18 3 33.5t11.5 32t15.5 28t21.5 27.5t20.5 23.5t25.5 26t23.5 22.5q33 33 41 58.5t8 88.5v264q0 127 22.5 205t90.5 144q55 55 132 71.5t210 16.5v-205q-152 0 -191 -38t-39 -187v-336q0 -41 -5 -71t-20.5 -55.5t-22.5 -35.5t-34.5 -36t-33.5 -32 q-49 -49 -6 -92q8 -8 33.5 -31.5t35.5 -36t25.5 -36t21.5 -54t6 -71.5v-336q0 -150 39 -187.5t191 -37.5v-205q-133 0 -210 16.5t-132 71.5q-68 66 -90.5 143.5t-22.5 204.5v264q0 63 -8 89t-41 59l-20 20q-16 16 -22.5 21.5t-20 21t-19.5 24.5t-15 23.5t-13.5 26.5 t-7.5 27.5t-3 29.5z" />
<glyph unicode="|" horiz-adv-x="593" d="M184 -391v1757h226v-1757h-226z" />
<glyph unicode="}" horiz-adv-x="819" d="M59 -186q152 0 191 37.5t39 187.5v336q0 41 6 71.5t21.5 54t25.5 36t35.5 36t34.5 31.5q43 43 -6 92q-6 6 -34 32t-35 36t-22.5 35.5t-20.5 55.5t-5 71v336q0 150 -39 187.5t-191 37.5v205q133 0 210 -16.5t132 -71.5q68 -66 90.5 -144t22.5 -205v-264q0 -63 8 -88.5 t41 -58.5q4 -4 23.5 -22.5t25.5 -26t20.5 -23.5t22 -27.5t15.5 -28t11 -31.5t3 -33.5t-3 -34t-12.5 -33t-14.5 -26.5t-21.5 -28.5t-20.5 -23.5l-25 -26l-24 -23q-33 -33 -41 -58.5t-8 -89.5v-264q0 -127 -22.5 -205t-90.5 -143q-55 -55 -131.5 -71.5t-210.5 -16.5v205z" />
<glyph unicode="~" horiz-adv-x="1230" d="M66 473q72 63 123 101t120.5 70t140 27t146.5 -48q61 -35 92 -51.5t70 -26.5t58.5 -8t57 19t67.5 39.5t87 70.5l137 -140q-72 -63 -123 -101t-120.5 -69.5t-140 -26.5t-146.5 48q-61 35 -92 51t-70 26.5t-58.5 8.5t-57.5 -19.5t-67.5 -40t-86.5 -69.5z" />
<glyph unicode="&#xa0;" horiz-adv-x="1173" d="M174 807v192h301v367h225v-367h299v-192h-299v-993h-225v993h-301z" />
<glyph unicode="&#xa1;" horiz-adv-x="1046" d="M217 1073q0 164 72.5 235.5t232.5 71.5q162 0 234.5 -71.5t72.5 -235.5t-73.5 -239.5t-231.5 -75.5q-160 0 -233.5 75.5t-73.5 239.5zM369 1069q0 -92 31.5 -128t121.5 -36q92 0 124 36t32 128t-32 128t-124 36q-90 0 -121.5 -36t-31.5 -128z" />
<glyph unicode="&#xa2;" horiz-adv-x="1150" d="M100 504q0 88 6.5 151.5t30 131t64.5 110.5t112.5 75t171.5 40v166h201v-166q356 -29 356 -312h-251q0 39 -18.5 63.5t-55.5 34t-62.5 11.5t-68.5 2q-152 0 -203 -66.5t-51 -244.5t51 -245t203 -67q43 0 68.5 2.5t62.5 11.5t55.5 33.5t18.5 63.5h251q0 -283 -356 -311 v-183h-201v183q-100 10 -171.5 42.5t-112.5 77t-64.5 113t-30 132t-6.5 151.5z" />
<glyph unicode="&#xa3;" horiz-adv-x="1214" d="M96 0v209h137v385h-137v209h137v133q0 164 23 225t74 109q117 111 352 110q66 0 112 -3t113.5 -22.5t110.5 -53t74.5 -102.5t31.5 -163h-223q0 82 -48 108.5t-153 26.5q-156 0 -195.5 -45t-39.5 -186v-137h571v-209h-571v-385h676v-209h-1045z" />
<glyph unicode="&#xa4;" horiz-adv-x="1204" d="M147 1053q0 98 36 165.5t103.5 101.5t138.5 47t163 13q227 2 346 -72.5t119 -271.5h-232q0 76 -48 107t-185 28q-115 0 -159 -28.5t-44 -110.5q0 -37 10.5 -60.5t22.5 -36.5t44 -18.5t51 -6.5t69 -1h26q82 0 129 -3t108.5 -21.5t106.5 -53.5q102 -80 103 -249 q0 -182 -123 -236q125 -59 125 -248q0 -98 -36 -165.5t-103.5 -101.5t-138 -47t-163.5 -13q-227 -2 -345.5 72.5t-118.5 271.5h231q0 -76 48 -107t185 -28q115 0 159 28.5t44 110.5q0 37 -11 60.5t-23.5 36.5t-44 18.5t-52 6.5t-65.5 1h-27q-82 0 -129 3t-108.5 21.5 t-106.5 52.5q-102 80 -102 250q0 182 122 236q-125 60 -125 248zM385 569q0 -82 49 -104.5t170 -22.5q72 0 111 6.5t70.5 38t31.5 93.5q0 82 -49 104.5t-170 22.5q-72 0 -110.5 -6.5t-70.5 -38.5t-32 -93z" />
<glyph unicode="&#xa5;" horiz-adv-x="1009" d="M256 684q0 131 59.5 190.5t190.5 59.5t189.5 -59.5t58.5 -190.5t-58.5 -189.5t-189.5 -58.5t-190.5 58.5t-59.5 189.5z" />
<glyph unicode="&#xa6;" horiz-adv-x="1271" d="M68 967q0 209 106.5 302t325.5 97h129h465v-1366h-205v1159h-123v-1159h-205v571q-250 -2 -371.5 80.5t-121.5 315.5zM299 973q0 -43 7 -74t15.5 -52.5t30 -34.5t35.5 -20.5t50 -11.5t56 -4h68v383q-160 0 -211 -30.5t-51 -155.5z" />
<glyph unicode="&#xa7;" horiz-adv-x="1167" d="M127 0v969v37v40q0 5 1 36.5t3 39.5t5 35t8.5 38t12.5 33.5t15 36t21.5 31t27.5 31.5q117 115 359 115q231 0 342.5 -89t111.5 -294q0 -260 -141 -316q156 -61 156 -344q0 -104 -28 -180t-69 -118t-107.5 -65.5t-127 -30.5t-142.5 -7h-96v209h101q143 0 190 41t47 164 q0 141 -48 182t-206 41h-84v209h84q63 0 98 5t73 22.5t55.5 59.5t17.5 109q0 115 -42 154t-185 39q-66 0 -109 -14.5t-65.5 -32t-34 -58.5t-12.5 -67.5t-1 -85.5v-975h-231z" />
<glyph unicode="&#xa8;" horiz-adv-x="1060" d="M66 919.5q0 149.5 20 233.5t74 135q94 92 370.5 92t370.5 -94t94 -368q0 -147 -21.5 -231.5t-74.5 -135.5q-100 -98 -369 -98q-270 0 -370 98q-53 51 -73.5 135t-20.5 233.5zM184 915q0 -217 64 -280q68 -68 282 -68q213 0 281 68q66 66 66 287q0 219 -66 280 q-68 63 -281 64q-215 0 -282 -64q-64 -60 -64 -287zM340 651v543h192q63 0 95 -4q115 -20 114 -137q0 -88 -57 -121q31 -14 44 -40t13 -93v-148h-110v162q0 39 -8.5 48t-36.5 11h-60h-71v-221h-115zM451 975h77q74 0 84 4q14 14 15 55q0 39 -10.5 49.5t-94.5 10.5h-71v-119z " />
<glyph unicode="&#xa9;" horiz-adv-x="1634" d="M131 688q0 410 138.5 551t545.5 141q209 0 338 -31.5t209 -114.5t110.5 -212t30.5 -338q0 -207 -30.5 -336t-111.5 -214t-210 -117.5t-336 -32.5q-209 0 -338 33.5t-208 118.5t-108.5 214t-29.5 338zM283 682q0 -172 19.5 -270.5t78.5 -166t160.5 -92t273.5 -24.5 q137 0 228.5 17.5t154 54.5t95 105.5t46 157.5t13.5 226q0 172 -20.5 271.5t-82 165t-162 87t-272.5 21.5q-176 0 -276.5 -22.5t-160 -89t-77.5 -166t-18 -275.5zM406 684q0 248 87 351.5t326 103.5q195 0 291 -65.5t96 -235.5h-155q0 98 -52.5 127.5t-179.5 29.5 q-164 0 -209 -65.5t-45 -245.5q0 -94 7.5 -143t32 -93.5t75.5 -60.5t139 -16q127 0 179.5 28.5t52.5 128.5h155q0 -170 -96 -235.5t-291 -65.5q-244 0 -328.5 102.5t-84.5 354.5z" />
<glyph unicode="&#xaa;" horiz-adv-x="1728" d="M33 1221v147h672v-147h-254v-744h-164v744h-254zM760 477v891h196l238 -676l240 676h194v-891h-153v604l-209 -604h-156l-201 602v-602h-149z" />
<glyph unicode="&#xab;" horiz-adv-x="892" d="M176 1106l283 260h258l-283 -260h-258z" />
<glyph unicode="&#xac;" horiz-adv-x="892" d="M104 1247q0 63 29 91t90 28q121 0 121 -119q0 -121 -121 -121q-119 0 -119 121zM547 1247q0 63 28.5 91t90.5 28q121 0 120 -119q0 -121 -120 -121q-119 0 -119 121z" />
<glyph unicode="&#xad;" d="M68 227v203h342l151 150h-493v202h692l219 228l133 -133l-92 -95h145v-202h-338l-149 -150h487v-203h-684l-219 -227l-133 133l88 94h-149z" />
<glyph unicode="&#xae;" horiz-adv-x="1945" d="M4 0l914 1366h905v-215h-621v-346h600v-213h-600v-375h621v-217h-858v338h-459l-221 -338h-281zM647 551h318v489z" />
<glyph unicode="&#xaf;" horiz-adv-x="1386" d="M131 552v136q2 129 5 193.5t19.5 162t52.5 145.5t96.5 100t159.5 71.5t234 19.5q51 0 58 -2l65 279l195 -49l-62 -258q55 -16 99.5 -40t76 -54.5t54 -68.5t36 -81t21.5 -92t10 -101.5t4 -111t0 -119.5q0 -94 -3 -155.5t-12 -136.5t-25.5 -122t-44 -98t-69.5 -82 t-99.5 -57.5t-136.5 -36.5t-177 -10q-35 0 -61 2l-68 -283l-194 45l63 268q-63 18 -110.5 49t-79 64t-53 88t-33 97t-16.5 117t-5 121zM373 684q-4 -299 52 -388t263 -91q109 0 169.5 17.5t96 74.5t47 142t13.5 243q4 299 -53.5 388t-264.5 91q-109 0 -168 -17.5t-96 -74.5 t-47 -142t-12 -243z" />
<glyph unicode="&#xb0;" horiz-adv-x="1495" d="M53 662l695 696l694 -696l-158 -160l-424 436v-938h-225v938l-422 -436z" />
<glyph unicode="&#xb1;" d="M68 0v209h1097v-209h-1097zM68 657v209h446v342h201v-342h450v-209h-450v-342h-203v342h-444z" />
<glyph unicode="&#xb2;" d="M68 0v209h1097v-209h-1097zM68 676v172l1017 360l80 -202l-751 -244l751 -242l-78 -201z" />
<glyph unicode="&#xb3;" d="M68 0v209h1097v-209h-1097zM68 520l751 242l-751 244l79 202l1018 -360v-172l-1020 -357z" />
<glyph unicode="&#xb4;" horiz-adv-x="1288" d="M37 1366h264l338 -555l346 555h266l-303 -475h144v-189h-265l-69 -116h334v-189h-334v-397h-232v397h-336v189h334l-69 116h-265v189h148z" />
<glyph unicode="&#xb5;" horiz-adv-x="1134" d="M129 -391v1390h231v-526v-54v-49q0 -9 1 -40t5.5 -38t10.5 -28.5t15 -27t22.5 -17.5t32 -15t42 -6t54.5 -3q68 0 113.5 18t69.5 40.5t35 72t12 79t1 97.5v33v464h232v-999h-209v76q-102 -92 -271 -92q-117 0 -174 36v-411h-223z" />
<glyph unicode="&#xb6;" horiz-adv-x="1155" d="M25 807v192h159v101q0 166 86 250q98 94 301 94q344 0 344 -242h-219q-6 57 -135 58q-25 0 -45 -3.5t-34.5 -7.5t-26 -15t-19.5 -17.5t-13 -22.5t-8 -22.5t-4 -27t-1 -26.5v-29v-28v-62h344v-192h-338v-807h-232v807h-159zM291 -143h225q4 -66 141 -66q88 0 123 32 t35 118v1058h232v-1056q0 -340 -390 -340q-162 0 -264 60.5t-102 193.5z" />
<glyph unicode="&#xb7;" horiz-adv-x="1280" />
<glyph unicode="&#xb8;" horiz-adv-x="1433" d="M197 485l663 664l-606 -8v225h983v-983h-225l8 606l-664 -663z" />
<glyph unicode="&#xb9;" horiz-adv-x="1433" d="M197 383v983h983v-225l-607 8l664 -664l-160 -159l-663 663l8 -606h-225z" />
<glyph unicode="&#xba;" horiz-adv-x="1435" d="M197 881l161 159l664 -663l-8 606h225v-983h-983v225l606 -8z" />
<glyph unicode="&#xbb;" horiz-adv-x="790" d="M66 895q0 59 18 101t45 65.5t70 37t81.5 17.5t90.5 4h192q0 72 -24 94q-37 33 -140 33q-158 0 -157 -73h-154q0 207 324 206q145 0 225 -55t80 -188v-60v-389h-137v66q-96 -76 -220 -76q-294 0 -294 217zM219 895q0 -47 26.5 -65.5t112.5 -18.5q106 0 154.5 40t48.5 136 h-194q-80 0 -114 -18.5t-34 -73.5z" />
<glyph unicode="&#xbc;" horiz-adv-x="790" d="M61 1030.5q0 106.5 15.5 168t60.5 104.5q80 78 258 77q176 0 256 -77q78 -76 78 -272.5t-78 -272.5q-80 -78 -256 -78q-178 0 -258 78q-45 43 -60.5 104.5t-15.5 168zM217 1030q0 -125 28.5 -168t149.5 -43t149.5 43t28.5 168t-28.5 168t-149.5 43t-149.5 -43t-28.5 -168 z" />
<glyph unicode="&#xbd;" horiz-adv-x="1435" d="M197 0v983h225l-8 -606l663 663l162 -159l-666 -664l607 8v-225h-983z" />
<glyph unicode="&#xbe;" horiz-adv-x="1781" d="M86 297q0 84 25.5 144.5t64.5 93t100.5 51t114.5 22.5t127 4h258q0 121 -40 164t-177 43q-45 0 -74.5 -3t-67.5 -12t-57.5 -34t-19.5 -61h-225q0 307 434 307q260 0 358 -111q104 111 318 111q123 0 208 -29t133 -74t74.5 -126.5t33.5 -160.5t7 -204h-686 q0 -135 49.5 -191.5t192.5 -56.5q213 0 215 125h217q0 -315 -438 -315q-246 0 -350 116q-113 -117 -398 -116q-193 0 -295 70.5t-102 242.5zM317 299q0 -68 43 -96.5t156 -28.5q90 0 141.5 11.5t78 45t33.5 73.5t9 118h-270q-111 0 -151 -23.5t-40 -99.5zM999 610h453 q0 117 -46 167t-181 50q-129 0 -177.5 -54t-48.5 -163z" />
<glyph unicode="&#xbf;" horiz-adv-x="1150" d="M100 504q2 154 26 248t85 155q115 113 369 109q59 0 84 -2l67 176l191 -70l-62 -162q53 -25 88 -59q63 -63 84 -154.5t19 -248.5q-2 -156 -26 -250t-85 -154q-117 -113 -369 -108q-57 0 -82 2l-75 -199l-193 72l72 178q-43 20 -88 63q-63 59 -85 153.5t-20 250.5z M332 502q-2 -182 41 -247t200 -67q84 0 132.5 14.5t74 56.5t32.5 93t7 146q2 182 -41 246.5t-200 66.5q-84 0 -132.5 -14.5t-74 -56.5t-32.5 -93t-7 -145z" />
<glyph unicode="&#xc0;" horiz-adv-x="950" d="M43 -35q0 240 172 340q33 18 74 39t55 29t30.5 27.5t19.5 46t3 77.5v86h234v-118q0 -193 -99 -277q-39 -35 -113.5 -64.5t-110.5 -67.5t-36 -118q0 -109 41 -155t164 -46t167 46.5t44 152.5h225q0 -225 -110.5 -314t-321.5 -89q-221 0 -329.5 91t-108.5 314zM371 870 q0 145 141 145.5t141 -145.5q0 -141 -141 -141t-141 141z" />
<glyph unicode="&#xc1;" horiz-adv-x="610" d="M164 870q0 145 141 145.5t141 -145.5q0 -141 -141 -141t-141 141zM190 -367v977h226v-977h-226z" />
<glyph unicode="&#xc2;" d="M68 580v208h1097v-788h-217v580h-880z" />
<glyph unicode="&#xc3;" horiz-adv-x="1495" d="M53 694l158 160l424 -434v938h225v-938l422 436l160 -160l-694 -696z" />
<glyph unicode="&#xc4;" horiz-adv-x="1210" d="M111 594v209h137v133q0 164 22 225q23 61 74 109q117 111 352 110q66 0 112 -3t113.5 -22.5t110.5 -53t75 -102.5t32 -163h-224q0 82 -47 108.5t-153 26.5q-156 0 -196 -45t-40 -186v-137h572v-209h-572v-985h-231v985h-137z" />
<glyph unicode="&#xc5;" horiz-adv-x="1234" d="M68 289q72 63 123 101t120.5 70t140 26.5t146.5 -48.5q61 -35 92 -51t70 -26.5t58.5 -8.5t57 19.5t67.5 40t87 69.5l137 -139q-72 -63 -123 -101t-120.5 -70t-140 -26.5t-146.5 48.5q-61 35 -92 51t-70 26.5t-58.5 8t-57 -19.5t-67.5 -39.5t-87 -69.5zM68 664 q72 63 123 101t120.5 69.5t140 26.5t146.5 -48q61 -35 92 -51.5t70 -26.5t58.5 -8t57 19.5t67.5 40t87 69.5l137 -139q-72 -63 -123 -101t-120.5 -70t-140 -27t-146.5 48q-61 35 -92 51.5t-70 26.5t-58.5 8t-57 -19.5t-67.5 -40t-87 -69.5z" />
<glyph unicode="&#xc6;" horiz-adv-x="1472" d="M57 678l695 694l159 -158l-434 -423h938v-226h-938l436 -422l-159 -159z" />
<glyph unicode="&#xc7;" horiz-adv-x="1040" d="M78 494q0 61 25.5 122.5t76.5 123t90 100.5t103 96l149 -139l-80 -80l-27 -28l-31 -31q-7 -7 -25.5 -27.5t-24.5 -31.5t-16.5 -29.5t-13.5 -37t-3 -36.5q0 -14 2 -28.5t9 -30t12.5 -27t17.5 -26.5t19.5 -23.5t23.5 -24.5l24 -24q7 -7 26.5 -25.5t25.5 -24.5l61 -59 l-147 -137q-160 143 -215 215q-82 109 -82 213zM522 494q0 61 25.5 122.5t77 123t90.5 100.5t102 96l150 -139l-80 -80l-28 -28l-31 -31q-7 -7 -25.5 -27.5t-24.5 -31.5t-16 -29.5t-13.5 -37t-3.5 -36.5q0 -14 2.5 -28.5t9.5 -30t12 -27t17.5 -26.5t19.5 -23.5t23 -24.5 l24 -24q7 -7 26.5 -25.5t25.5 -24.5l62 -59l-148 -137q-160 143 -215 215q-82 109 -82 213z" />
<glyph unicode="&#xc8;" horiz-adv-x="1040" d="M74 203l61 59q6 6 25.5 24.5t26.5 25.5l24 24q16 16 23.5 24.5t19.5 23.5t17 26.5t12.5 27t9.5 29.5t2 29q0 18 -3 36.5t-13.5 37t-16.5 29.5t-24.5 31.5t-25.5 27.5l-31 31l-27 28l-80 80l149 139q63 -57 102.5 -96t90.5 -100.5t76.5 -123t25.5 -122.5 q0 -49 -22.5 -103.5t-43 -88.5t-75.5 -90t-72.5 -72.5t-83.5 -73.5zM518 203l62 59q6 6 25.5 24.5t26.5 25.5l23 24q16 16 23.5 24.5t20 23.5t17.5 26.5t12 27t9 29.5t2 29q0 18 -3 36.5t-13 37t-16.5 29.5t-24.5 31.5t-26 27.5l-30 31l-28 28l-80 80l150 139 q63 -57 102 -96t90 -100.5t77 -123t26 -122.5q0 -49 -22.5 -103.5t-43 -88.5t-76 -90t-73 -72.5t-82.5 -73.5z" />
<glyph unicode="&#xc9;" horiz-adv-x="2015" d="M195 129q0 141 141 141t141 -141q0 -145 -141 -145t-141 145zM866 129q0 141 141.5 141t141.5 -141q0 -145 -141.5 -145t-141.5 145zM1538 129q0 141 141.5 141t141.5 -141q0 -145 -141.5 -145t-141.5 145z" />
<glyph unicode="&#xca;" horiz-adv-x="622" />
<glyph unicode="&#xcb;" horiz-adv-x="1333" d="M16 0l529 1366h248l524 -1366h-264l-127 348h-533l-125 -348h-252zM469 557h383l-190 541zM377 1765h254l281 -258h-254z" />
<glyph unicode="&#xcc;" horiz-adv-x="1333" d="M16 0l529 1366h248l524 -1366h-264l-127 348h-533l-125 -348h-252zM469 557h383l-190 541zM248 1650q12 6 65.5 34t73.5 37t67.5 25.5t77 16.5t70.5 -8t78 -31q8 -6 29.5 -19.5t27.5 -16.5t23.5 -10t29 -6t30 2t39 9t46.5 23l109 55l73 -145l-157 -80q-147 -74 -273 4 q-12 6 -33.5 21.5t-29.5 19.5t-25.5 10t-32 4t-38 -9t-52.5 -22l-118 -59z" />
<glyph unicode="&#xcd;" horiz-adv-x="1386" d="M131 684q0 109 2 166t12.5 145t31 133.5t61.5 101.5t100 83.5t148 47t206 19.5q162 0 271.5 -37.5t167 -87t86 -156t33.5 -183t5 -230.5q0 -109 -3 -176.5t-15 -150.5t-34.5 -132t-62.5 -101t-100.5 -80t-146.5 -45t-199 -17q-162 0 -272.5 38.5t-166.5 89t-85 158 t-34 185t-5 229.5zM373 682q0 -299 57 -388t262 -89t263.5 90t58.5 389t-57.5 388t-264.5 89q-205 0 -262 -89t-57 -390zM271 1650q12 6 65.5 34t73.5 37t67.5 25.5t77 16.5t70.5 -8t78 -31q8 -6 29.5 -19.5t27.5 -16.5t23.5 -10t29 -6t30 2t39 9t46.5 23l109 55l73 -145 l-157 -80q-147 -74 -273 4q-12 6 -33.5 21.5t-29.5 19.5t-25.5 10t-32 4t-38 -9t-52.5 -22l-118 -59z" />
<glyph unicode="&#xce;" horiz-adv-x="1859" d="M131 682q0 205 18.5 312.5t71.5 185.5q72 106 186.5 146t313.5 40h1016v-215h-600v-346h579v-213h-579v-375h600v-217h-1018q-199 0 -313.5 40t-186.5 144q-53 78 -70.5 184.5t-17.5 313.5zM373 682q0 -115 6 -191.5t26.5 -129t42 -81t69.5 -43t90 -17.5t124 -3h168v934 h-166q-80 0 -123 -3t-91 -18.5t-70.5 -44t-43 -82t-26.5 -130t-6 -191.5z" />
<glyph unicode="&#xcf;" horiz-adv-x="1835" d="M100 499.5q0 155.5 22.5 250t84.5 153.5q115 113 368 113q248 0 357 -117q104 117 346 117q92 0 162.5 -16.5t119 -42t81 -71.5t51 -89t29 -114t12.5 -127t2 -144h-684q0 -133 49 -185.5t192 -52.5q211 0 213 125h217q0 -315 -438 -315q-246 0 -350 116 q-111 -117 -359 -116q-254 0 -368 112q-61 59 -84 153.5t-23 250zM332 499.5q0 -182.5 43 -247t200.5 -64.5t200.5 64.5t43 247t-43 247t-200.5 64.5t-200.5 -64.5t-43 -247zM1055 600h450q0 63 -5 97t-26.5 68t-69.5 47t-126 13q-139 0 -181 -54t-42 -171z" />
<glyph unicode="&#xd0;" d="M68 395v209h1097v-209h-1097z" />
<glyph unicode="&#xd1;" horiz-adv-x="2062" d="M201 395v209h1661v-209h-1661z" />
<glyph unicode="&#xd2;" horiz-adv-x="864" d="M135 801v217q0 102 15.5 162.5t70.5 115.5l90 88l150 -137q-72 -72 -91.5 -107.5t-19.5 -121.5v-217h-215zM506 801v217q0 94 20.5 157.5t77.5 120.5l90 88l150 -137l-30 -29l-27 -27q-5 -5 -20 -22.5t-18.5 -24.5t-11.5 -22.5t-10 -29t-4 -33t-2 -41.5v-217h-215z" />
<glyph unicode="&#xd3;" horiz-adv-x="864" d="M20 920l30 29l27 27q5 5 20.5 22.5t18.5 24.5t11 22.5t10 28.5t4 32.5t2 42.5v217h215v-217q0 -94 -20.5 -157.5t-77.5 -121.5l-90 -88zM403 920q72 72 91.5 107.5t19.5 121.5v217h215v-217q0 -102 -15.5 -162.5t-70.5 -116.5l-90 -88z" />
<glyph unicode="&#xd4;" horiz-adv-x="493" d="M135 801v217q0 94 20.5 157.5t77.5 120.5l91 88l149 -137l-30 -29l-26 -27q-5 -5 -20.5 -22.5t-18.5 -24.5t-11.5 -22.5t-10.5 -29t-4 -33t-2 -41.5v-217h-215z" />
<glyph unicode="&#xd5;" horiz-adv-x="493" d="M20 920l30 29l27 27q5 5 20.5 22.5t18.5 24.5t11 22.5t10 28.5t4 32.5t2 42.5v217h215v-217q0 -94 -20.5 -157.5t-77.5 -121.5l-90 -88z" />
<glyph unicode="&#xd6;" horiz-adv-x="1253" d="M78 395v209h1098v-209h-1098zM496 129q0 141 141 141t141 -141q0 -145 -141 -145t-141 145zM496 874q0 141 141 141.5t141 -141.5q0 -145 -141 -145t-141 145z" />
<glyph unicode="&#xd7;" horiz-adv-x="1476" d="M59 565v226h938l-434 423l160 158l694 -694l-696 -694l-160 159l436 422h-938z" />
<glyph unicode="&#xd8;" horiz-adv-x="1062" d="M35 999h246l256 -718l245 718h246l-539 -1388h-243l170 414zM176 1247q0 63 29 91t90 28q121 0 121 -119q0 -121 -121 -121q-119 0 -119 121zM619 1247q0 63 28.5 91t90.5 28q121 0 120 -119q0 -121 -120 -121q-119 0 -119 121z" />
<glyph unicode="&#xd9;" horiz-adv-x="1251" d="M4 1366h281l344 -561l342 561h276l-502 -776v-590h-241v590zM288 1646q0 63 29 91t90 28q121 0 121 -119q0 -121 -121 -121q-119 0 -119 121zM731 1646q0 63 28.5 91t90.5 28q121 0 120 -119q0 -121 -120 -121q-119 0 -119 121z" />
<glyph unicode="&#xda;" horiz-adv-x="729" d="M-109 0l771 1366h176l-772 -1366h-175z" />
<glyph unicode="&#xdb;" d="M82 743v187h137q12 227 115.5 338.5t359.5 111.5q444 0 445 -344h-236q0 80 -49 106.5t-160 26.5q-78 0 -126 -14t-71.5 -49t-31.5 -73t-10 -103h358v-187h-364v-116h362v-187h-356q2 -66 10 -103.5t31.5 -74.5t71.5 -52t126 -15q111 0 160 26.5t49 106.5h236 q0 -344 -445 -344q-256 0 -359.5 114.5t-115.5 341.5h-135v187h135v116h-137z" />
<glyph unicode="&#xdc;" horiz-adv-x="595" d="M78 494q0 61 25.5 122.5t76.5 123t90 100.5t103 96l149 -139l-80 -80l-27 -28l-31 -31q-7 -7 -25.5 -27.5t-24.5 -31.5t-16.5 -29.5t-13.5 -37t-3 -36.5q0 -14 2 -28.5t9 -30t12.5 -27t17.5 -26.5t19.5 -23.5t23.5 -24.5l24 -24q7 -7 26.5 -25.5t25.5 -24.5l61 -59 l-147 -137q-160 143 -215 215q-82 109 -82 213z" />
<glyph unicode="&#xdd;" horiz-adv-x="595" d="M74 203l61 59q6 6 25.5 24.5t26.5 25.5l24 24q16 16 23.5 24.5t19.5 23.5t17 26.5t12.5 27t9.5 29.5t2 29q0 18 -3 36.5t-13.5 37t-16.5 29.5t-24.5 31.5t-25.5 27.5l-31 31l-27 28l-80 80l149 139q63 -57 102.5 -96t90.5 -100.5t76.5 -123t25.5 -122.5 q0 -49 -22.5 -103.5t-43 -88.5t-75.5 -90t-72.5 -72.5t-83.5 -73.5z" />
<glyph unicode="&#xde;" horiz-adv-x="1155" d="M25 807v192h159v101q0 166 86 250q98 94 301 94q344 0 344 -242h-219q-6 57 -135 58q-25 0 -45 -3.5t-34.5 -7.5t-26 -15t-19.5 -17.5t-13 -22.5t-8 -22.5t-4 -27t-1 -26.5v-29v-28v-62h323v-192h-317v-807h-232v807h-159zM795 0v999h231v-999h-231z" />
<glyph unicode="&#xdf;" horiz-adv-x="1376" d="M25 807v192h159v101q0 166 86 250q98 94 301 94q344 0 344 -242h-219q-6 57 -135 58q-25 0 -45 -3.5t-34.5 -7.5t-26 -15t-19.5 -17.5t-13 -22.5t-8 -22.5t-4 -27t-1 -26.5v-29v-28v-62h344v-192h-338v-807h-232v807h-159zM1018 0v1427h231v-1427h-231z" />
<glyph unicode="&#xe0;" horiz-adv-x="1173" d="M174 397v193h301v217h-301v192h301v367h225v-367h299v-192h-299v-215l299 -2v-193h-299v-583h-225v583h-301z" />
<glyph unicode="&#xe1;" horiz-adv-x="495" d="M106 690q0 141 141.5 141t141.5 -141q0 -145 -141.5 -145t-141.5 145z" />
<glyph unicode="&#xe2;" horiz-adv-x="503" d="M20 -172l30 30l27 26q5 5 20.5 22.5t18.5 25t11 22.5t10 28.5t4 33t2 41.5v217h215v-217q0 -94 -20.5 -157.5t-77.5 -120.5l-90 -88z" />
<glyph unicode="&#xe3;" horiz-adv-x="874" d="M20 -172l30 30l27 26q5 5 20.5 22.5t18.5 25t11 22.5t10 28.5t4 33t2 41.5v217h215v-217q0 -94 -20.5 -157.5t-77.5 -120.5l-90 -88zM403 -172q72 72 91.5 107.5t19.5 121.5v217h215v-217q0 -102 -15.5 -162.5t-70.5 -115.5l-90 -88z" />
<glyph unicode="&#xe4;" horiz-adv-x="2465" d="M131 950v19v18q0 57 1 86t6 78t15.5 75.5t32 60.5t52 51.5t79 29.5t109.5 12q86 0 145.5 -23.5t88 -54t44 -92t17.5 -101.5t2 -122v-18q0 -6 -6 -148q-8 -135 -75 -200.5t-216 -65.5q-86 0 -144.5 24.5t-88 55.5t-44 93.5t-16.5 102t-2 119.5zM291 969q0 -174 22 -219 q27 -51 113 -52q61 0 85 16.5t34 47.5q20 61 20 207q0 168 -24 217q-23 49 -115 49q-43 0 -68.5 -9t-34 -20.5t-14.5 -31.5q-18 -55 -18 -205zM412 0l770 1366h176l-772 -1366h-174zM1047 379v18v19q0 57 1 85.5t6 78t15 76t31.5 60.5t52.5 51t79 29.5t109 12.5 q86 0 145.5 -23.5t88.5 -54.5t44 -92t17 -101t2 -122v-19q0 -6 -6 -147q-8 -135 -74.5 -200.5t-216.5 -65.5q-86 0 -144 24.5t-88 55t-44 93t-16 102.5t-2 120zM1206 397q0 -174 23 -219q25 -51 112 -51q61 0 85 16.5t34 46.5q20 61 21 207q0 168 -25 217q-23 49 -115 50 q-43 0 -68.5 -9.5t-33.5 -20.5t-14 -32q-19 -55 -19 -205zM1743 379v18v19q0 57 1 85.5t6 78t15.5 76t32 60.5t52 51t78.5 29.5t110 12.5q86 0 145.5 -23.5t88 -54.5t44 -92t17.5 -101t2 -122v-19q0 -6 -6 -147q-8 -135 -75 -200.5t-216 -65.5q-86 0 -144.5 24.5t-88 55 t-44 93t-16.5 102.5t-2 120zM1903 397q0 -174 22 -219q25 -51 113 -51q61 0 84.5 16.5t34.5 46.5q20 61 20 207q0 168 -25 217q-23 49 -114 50q-43 0 -68.5 -9.5t-34 -20.5t-14.5 -32q-18 -55 -18 -205z" />
<glyph unicode="&#xe5;" horiz-adv-x="1333" d="M16 0l529 1366h248l524 -1366h-264l-127 348h-533l-125 -348h-252zM469 557h383l-190 541zM293 1505l264 260h225l264 -260h-231l-145 141l-142 -141h-235z" />
<glyph unicode="&#xe6;" horiz-adv-x="1218" d="M156 0v1366h940v-215h-703v-346h682v-213h-682v-375h703v-217h-940zM242 1505l264 260h225l264 -260h-231l-145 141l-142 -141h-235z" />
<glyph unicode="&#xe7;" horiz-adv-x="1333" d="M16 0l529 1366h248l524 -1366h-264l-127 348h-533l-125 -348h-252zM469 557h383l-190 541zM426 1505l283 260h258l-283 -260h-258z" />
<glyph unicode="&#xe8;" horiz-adv-x="1218" d="M156 0v1366h940v-215h-703v-346h682v-213h-682v-375h703v-217h-940zM278 1646q0 63 29 91t90 28q121 0 121 -119q0 -121 -121 -121q-119 0 -119 121zM721 1646q0 63 28.5 91t90.5 28q121 0 120 -119q0 -121 -120 -121q-119 0 -119 121z" />
<glyph unicode="&#xe9;" horiz-adv-x="1218" d="M156 0v1366h940v-215h-703v-346h682v-213h-682v-375h703v-217h-940zM307 1765h254l281 -258h-254z" />
<glyph unicode="&#xea;" horiz-adv-x="552" d="M156 0v1366h241v-1366h-241zM14 1505l283 260h258l-283 -260h-258z" />
<glyph unicode="&#xeb;" horiz-adv-x="552" d="M156 0v1366h241v-1366h-241zM-100 1505l264 260h225l264 -260h-231l-145 141l-142 -141h-235z" />
<glyph unicode="&#xec;" horiz-adv-x="552" d="M156 0v1366h241v-1366h-241zM-64 1646q0 63 29 91t90 28q121 0 121 -119q0 -121 -121 -121q-119 0 -119 121zM379 1646q0 63 28.5 91t90.5 28q121 0 120 -119q0 -121 -120 -121q-119 0 -119 121z" />
<glyph unicode="&#xed;" horiz-adv-x="552" d="M156 0v1366h241v-1366h-241zM6 1765h254l281 -258h-254z" />
<glyph unicode="&#xee;" horiz-adv-x="1386" d="M131 684q0 109 2 166t12.5 145t31 133.5t61.5 101.5t100 83.5t148 47t206 19.5q162 0 271.5 -37.5t167 -87t86 -156t33.5 -183t5 -230.5q0 -109 -3 -176.5t-15 -150.5t-34.5 -132t-62.5 -101t-100.5 -80t-146.5 -45t-199 -17q-162 0 -272.5 38.5t-166.5 89t-85 158 t-34 185t-5 229.5zM373 682q0 -299 57 -388t262 -89t263.5 90t58.5 389t-57.5 388t-264.5 89q-205 0 -262 -89t-57 -390zM463 1505l283 260h258l-283 -260h-258z" />
<glyph unicode="&#xef;" horiz-adv-x="1386" d="M131 684q0 109 2 166t12.5 145t31 133.5t61.5 101.5t100 83.5t148 47t206 19.5q162 0 271.5 -37.5t167 -87t86 -156t33.5 -183t5 -230.5q0 -109 -3 -176.5t-15 -150.5t-34.5 -132t-62.5 -101t-100.5 -80t-146.5 -45t-199 -17q-162 0 -272.5 38.5t-166.5 89t-85 158 t-34 185t-5 229.5zM373 682q0 -299 57 -388t262 -89t263.5 90t58.5 389t-57.5 388t-264.5 89q-205 0 -262 -89t-57 -390zM316 1505l264 260h225l264 -260h-231l-145 141l-142 -141h-235z" />
<glyph unicode="&#xf0;" horiz-adv-x="1660" d="M127 688q0 225 34 350t117.5 203t213 108.5t336 30.5t335.5 -30.5t213 -108.5q84 -80 121 -207t37 -350t-37 -348t-121 -205q-86 -80 -216 -113.5t-332.5 -33.5t-332.5 33.5t-216 113.5q-84 78 -118 204t-34 353zM299 682q0 -201 22.5 -294t73.5 -142q35 -35 125 -64v393 h-125v154h125v94q0 303 344 303q346 0 346 -241h-172q0 84 -170 84q-96 0 -136 -32t-40 -114v-94h408v-154h-408v-423q59 -6 135 -7q326 0 433 101q53 51 77.5 147t24.5 297q0 199 -24.5 292t-77.5 144q-100 94 -432 94.5t-433 -94.5q-57 -55 -76.5 -139t-19.5 -305z" />
<glyph unicode="&#xf1;" horiz-adv-x="1386" d="M131 684q0 109 2 166t12.5 145t31 133.5t61.5 101.5t100 83.5t148 47t206 19.5q162 0 271.5 -37.5t167 -87t86 -156t33.5 -183t5 -230.5q0 -109 -3 -176.5t-15 -150.5t-34.5 -132t-62.5 -101t-100.5 -80t-146.5 -45t-199 -17q-162 0 -272.5 38.5t-166.5 89t-85 158 t-34 185t-5 229.5zM373 682q0 -299 57 -388t262 -89t263.5 90t58.5 389t-57.5 388t-264.5 89q-205 0 -262 -89t-57 -390zM432 1765h254l281 -258h-254z" />
<glyph unicode="&#xf2;" horiz-adv-x="1335" d="M147 686v680h242v-680q0 -264 12 -326q25 -111 123 -139q53 -16 144 -16q61 0 104 7t74 21.5t50 37t30.5 54t15.5 73.5t5 95q0 17 1 35q0 37 -2 78v80v680h242v-680q0 -223 -4 -287q-23 -416 -516.5 -415.5t-515.5 415.5q-5 64 -5 287zM436 1505l283 260h258l-283 -260 h-258z" />
<glyph unicode="&#xf3;" horiz-adv-x="1335" d="M147 686v680h242v-680q0 -264 12 -326q25 -111 123 -139q53 -16 144 -16q61 0 104 7t74 21.5t50 37t30.5 54t15.5 73.5t5 95q0 17 1 35q0 37 -2 78v80v680h242v-680q0 -223 -4 -287q-23 -416 -516.5 -415.5t-515.5 415.5q-5 64 -5 287zM301 1505l264 260h225l264 -260 h-231l-145 141l-142 -141h-235z" />
<glyph unicode="&#xf4;" horiz-adv-x="1335" d="M147 686v680h242v-680q0 -264 12 -326q25 -111 123 -139q53 -16 144 -16q61 0 104 7t74 21.5t50 37t30.5 54t15.5 73.5t5 95q0 17 1 35q0 37 -2 78v80v680h242v-680q0 -223 -4 -287q-23 -416 -516.5 -415.5t-515.5 415.5q-5 64 -5 287zM379 1765h254l281 -258h-254z" />
<glyph unicode="&#xf5;" horiz-adv-x="489" d="M129 0v999h231v-999h-231z" />
<glyph unicode="&#xf6;" horiz-adv-x="901" d="M74 1106l264 260h225l264 -260h-231l-145 141l-142 -141h-235z" />
<glyph unicode="&#xf7;" horiz-adv-x="901" d="M31 1255q12 6 65.5 34t73.5 37t67.5 25.5t77 16.5t70.5 -8t78 -31q8 -6 29.5 -19.5t27.5 -16.5t23.5 -10t29 -6t30 2t39 9t46.5 23l109 55l73 -145l-157 -80q-147 -74 -273 4q-12 6 -33.5 21.5t-29.5 19.5t-25.5 10t-32 4t-38 -9t-52.5 -22l-118 -59z" />
<glyph unicode="&#xf8;" horiz-adv-x="901" d="M86 1165v164h727v-164h-727z" />
<glyph unicode="&#xf9;" horiz-adv-x="901" d="M150 1366h143q0 -82 39 -107.5t118.5 -25.5t118.5 25.5t39 107.5h144q0 -154 -65.5 -211t-235.5 -57t-235.5 57t-65.5 211z" />
<glyph unicode="&#xfa;" horiz-adv-x="901" d="M330 1247q0 63 28.5 91t90.5 28q121 0 120 -119q0 -121 -120 -121q-119 0 -119 121z" />
<glyph unicode="&#xfb;" horiz-adv-x="1105" d="M301 1126q0 127 58.5 183.5t193.5 56.5t193.5 -56.5t58.5 -183.5t-58.5 -185t-193.5 -58t-193.5 58t-58.5 185zM440 1124.5q0 -69.5 22.5 -95t90.5 -25.5t90.5 25.5t22.5 95t-22.5 95t-90.5 25.5t-90.5 -25.5t-22.5 -95z" />
<glyph unicode="&#xfc;" horiz-adv-x="901" d="M260 -244h111q0 -31 15 -40t54 -9q41 0 52.5 14.5t11.5 49.5q0 59 -74 63h-59v166h116v-78q133 -8 134 -147q0 -170 -180.5 -170.5t-180.5 151.5z" />
<glyph unicode="&#xfd;" horiz-adv-x="897" d="M0 1053l295 313h231l-295 -313h-231zM375 1053l295 313h231l-295 -313h-231z" />
<glyph unicode="&#xfe;" horiz-adv-x="800" d="M184 -197q0 113 47.5 155t174.5 42v-102q-72 0 -88.5 -15.5t-16.5 -81.5q0 -53 11.5 -71.5t49.5 -18.5q41 0 50.5 11.5t9.5 44.5h121q0 -88 -43 -123t-135 -35q-61 0 -99.5 16.5t-54.5 49t-21.5 60t-5.5 68.5z" />
<glyph unicode="&#xff;" horiz-adv-x="901" d="M74 1366h231l146 -141l141 141h235l-264 -260h-225z" />
<glyph unicode="&#x152;" horiz-adv-x="1107" d="M86 303q0 84 24.5 145.5t62.5 95.5t98.5 53t113.5 24.5t127 5.5h256q0 113 -35 152.5t-176 39.5q-45 0 -73.5 -3t-66.5 -12t-57.5 -34t-19.5 -61h-225q0 227 231 284q-33 41 -33 152q0 123 57.5 172t192.5 49t192.5 -49t57.5 -172q0 -111 -33 -152q213 -72 213 -342v-651 h-207v82q-113 -98 -311 -98q-190 0 -289.5 72.5t-99.5 246.5zM317 307q0 -70 41 -101.5t154 -31.5q166 0 213 59.5t47 204.5h-268q-109 0 -148 -26.5t-39 -104.5zM453 1124q0 -68 21.5 -90t90.5 -22q68 0 89.5 22.5t21.5 89.5q0 70 -22.5 95.5t-90 25.5t-89 -25.5 t-21.5 -95.5z" />
<glyph unicode="&#x153;" horiz-adv-x="1120" d="M115 430v25v544h231v-526v-53v-51q0 -10 1 -41t5 -39t10.5 -29.5t15.5 -27t22.5 -18.5t32 -15t42 -6.5t53.5 -4.5q49 0 87 10.5t61.5 22.5t41 41t26 46.5t12.5 60.5t4 62v71v33v464h231v-999h-200v80q-109 -96 -289 -96q-82 0 -144.5 15t-102.5 34.5t-68.5 60.5t-42 71 t-20.5 86t-8 87t-1 92zM340 1106l283 260h258l-283 -260h-258z" />
<glyph unicode="&#x178;" horiz-adv-x="1120" d="M115 430v25v544h231v-526v-53v-51q0 -10 1 -41t5 -39t10.5 -29.5t15.5 -27t22.5 -18.5t32 -15t42 -6.5t53.5 -4.5q49 0 87 10.5t61.5 22.5t41 41t26 46.5t12.5 60.5t4 62v71v33v464h231v-999h-200v80q-109 -96 -289 -96q-82 0 -144.5 15t-102.5 34.5t-68.5 60.5t-42 71 t-20.5 86t-8 87t-1 92zM223 1247q0 63 29 91t90 28q121 0 121 -119q0 -121 -121 -121q-119 0 -119 121zM666 1247q0 63 28.5 91t90.5 28q121 0 120 -119q0 -121 -120 -121q-119 0 -119 121z" />
<glyph unicode="&#x2c6;" horiz-adv-x="1107" d="M86 303q0 84 24.5 145.5t62.5 95.5t98.5 53t113.5 24.5t127 5.5h256q0 113 -35 152.5t-176 39.5q-45 0 -73.5 -3t-66.5 -12t-57.5 -34t-19.5 -61h-225q0 92 36.5 155.5t105.5 95t142.5 44t169.5 12.5q424 0 424 -365v-651h-207v82q-113 -98 -311 -98q-190 0 -289.5 72.5 t-99.5 246.5zM317 307q0 -70 41 -101.5t154 -31.5q166 0 213 59.5t47 204.5h-268q-109 0 -148 -26.5t-39 -104.5zM274 1366h254l281 -258h-254z" />
<glyph unicode="&#x2dc;" horiz-adv-x="1150" d="M100 499.5q0 155.5 22.5 250t84.5 153.5q115 113 368.5 113t368.5 -113q61 -59 84 -153.5t23 -250t-22.5 -249.5t-84.5 -154q-115 -113 -368.5 -112.5t-368.5 112.5q-61 59 -84 153.5t-23 250zM332 499.5q0 -182.5 43 -247t200.5 -64.5t200.5 64.5t43 247t-43 247 t-200.5 64.5t-200.5 -64.5t-43 -247zM334 1366h254l281 -258h-254z" />
<glyph unicode="&#x2000;" horiz-adv-x="882" />
<glyph unicode="&#x2001;" horiz-adv-x="1765" />
<glyph unicode="&#x2002;" horiz-adv-x="882" />
<glyph unicode="&#x2003;" horiz-adv-x="1765" />
<glyph unicode="&#x2004;" horiz-adv-x="587" />
<glyph unicode="&#x2005;" horiz-adv-x="440" />
<glyph unicode="&#x2006;" horiz-adv-x="292" />
<glyph unicode="&#x2007;" horiz-adv-x="292" />
<glyph unicode="&#x2008;" horiz-adv-x="219" />
<glyph unicode="&#x2009;" horiz-adv-x="352" />
<glyph unicode="&#x200a;" horiz-adv-x="96" />
<glyph unicode="&#x2010;" horiz-adv-x="1105" d="M133 395v209h840v-209h-840z" />
<glyph unicode="&#x2011;" horiz-adv-x="1105" d="M133 395v209h840v-209h-840z" />
<glyph unicode="&#x2012;" horiz-adv-x="1105" d="M133 395v209h840v-209h-840z" />
<glyph unicode="&#x2013;" horiz-adv-x="1120" d="M129 0v999h201v-79q109 96 288 96q82 0 144.5 -15.5t102.5 -35t69 -60.5t42 -70.5t20.5 -86t8.5 -87t1 -92.5v-24v-545h-232v526v54v51q0 10 -1 40.5t-5 39t-10 30t-15.5 26.5t-22.5 18.5t-31.5 15.5t-42 6t-54.5 4q-49 0 -87 -10t-61.5 -22.5t-41 -41t-25.5 -46 t-12.5 -60.5t-4.5 -63v-70v-33v-465h-231zM146 1255q12 6 65.5 34t73.5 37t67.5 25.5t77 16.5t70.5 -8t78 -31q8 -6 29.5 -19.5t27.5 -16.5t23.5 -10t29 -6t30 2t39 9t46.5 23l109 55l73 -145l-157 -80q-147 -74 -273 4q-12 6 -33.5 21.5t-29.5 19.5t-25.5 10t-32 4t-38 -9 t-52.5 -22l-118 -59z" />
<glyph unicode="&#x2014;" horiz-adv-x="1150" d="M100 499.5q0 155.5 22.5 250t84.5 153.5q115 113 368.5 113t368.5 -113q61 -59 84 -153.5t23 -250t-22.5 -249.5t-84.5 -154q-115 -113 -368.5 -112.5t-368.5 112.5q-61 59 -84 153.5t-23 250zM332 499.5q0 -182.5 43 -247t200.5 -64.5t200.5 64.5t43 247t-43 247 t-200.5 64.5t-200.5 -64.5t-43 -247zM364 1106l283 260h258l-283 -260h-258z" />
<glyph unicode="&#x2018;" horiz-adv-x="1116" d="M100 487q0 98 9.5 170t37 143.5t76.5 116t134 72t202 27.5q92 0 163 -16.5t119 -42t80.5 -71.5t51 -89t29 -114t12.5 -127t2 -144h-684q0 -133 49 -185.5t192 -52.5q211 0 213 125h218q0 -315 -439 -315q-145 0 -240.5 35.5t-142.5 108.5t-64.5 155.5t-17.5 203.5z M336 600h450q0 63 -5 97t-26.5 68t-69.5 47t-126 13q-139 0 -181 -54t-42 -171zM223 1247q0 63 29 91t90 28q121 0 121 -119q0 -121 -121 -121q-119 0 -119 121zM666 1247q0 63 28.5 91t90.5 28q121 0 120 -119q0 -121 -120 -121q-119 0 -119 121z" />
<glyph unicode="&#x2019;" horiz-adv-x="489" d="M6 1106l283 260h258l-283 -260h-258zM129 0v999h231v-999h-231z" />
<glyph unicode="&#x201a;" horiz-adv-x="1343" d="M131 684q0 74 1 116t4 106.5t11.5 101t22.5 89t35.5 83t52.5 67.5t74 57.5t97 40t125 27.5t155 8q252 0 382 -89t130 -308h-238q0 104 -59.5 141t-233.5 37q-203 0 -260 -90t-57 -389t56 -388t259 -89q176 0 234.5 35.5t58.5 140.5h238q0 -209 -117 -298t-342 -97v-64 q133 -8 133 -147q0 -170 -180.5 -170t-180.5 151h111q0 -31 15.5 -40t54.5 -9q41 0 52 14.5t11 49.5q0 59 -74 63h-59v152q-147 6 -247.5 49t-153 94t-78 156.5t-29.5 179.5t-4 219z" />
<glyph unicode="&#x201c;" horiz-adv-x="489" d="M129 0v999h231v-999h-231zM-37 1366h254l281 -258h-254z" />
<glyph unicode="&#x201d;" horiz-adv-x="489" d="M129 0v999h231v-999h-231zM-131 1106l264 260h225l264 -260h-231l-145 141l-142 -141h-235z" />
<glyph unicode="&#x201e;" horiz-adv-x="1351" d="M156 0v1366h245l570 -973v973h225v-1366h-248l-567 981v-981h-225zM256 1650q12 6 65.5 34t73.5 37t67.5 25.5t77 16.5t70.5 -8t78 -31q8 -6 29.5 -19.5t27.5 -16.5t23.5 -10t29 -6t30 2t39 9t46.5 23l109 55l73 -145l-157 -80q-147 -74 -273 4q-12 6 -33.5 21.5 t-29.5 19.5t-25.5 10t-32 4t-38 -9t-52.5 -22l-118 -59z" />
<glyph unicode="&#x2022;" horiz-adv-x="489" d="M129 0v999h231v-999h-231zM-97 1247q0 63 29 91t90 28q121 0 121 -119q0 -121 -121 -121q-119 0 -119 121zM346 1247q0 63 28.5 91t90.5 28q121 0 120 -119q0 -121 -120 -121q-119 0 -119 121z" />
<glyph unicode="&#x2026;" horiz-adv-x="1386" d="M131 684q0 109 2 166t12.5 145t31 133.5t61.5 101.5t100 83.5t148 47t206 19.5q162 0 271.5 -37.5t167 -87t86 -156t33.5 -183t5 -230.5q0 -109 -3 -176.5t-15 -150.5t-34.5 -132t-62.5 -101t-100.5 -80t-146.5 -45t-199 -17q-162 0 -272.5 38.5t-166.5 89t-85 158 t-34 185t-5 229.5zM373 682q0 -299 57 -388t262 -89t263.5 90t58.5 389t-57.5 388t-264.5 89q-205 0 -262 -89t-57 -390zM364 1646q0 63 29 91t90 28q121 0 121 -119q0 -121 -121 -121q-119 0 -119 121zM807 1646q0 63 28.5 91t90.5 28q121 0 120 -119q0 -121 -120 -121 q-119 0 -119 121z" />
<glyph unicode="&#x202f;" horiz-adv-x="352" />
<glyph unicode="&#x2039;" horiz-adv-x="1107" d="M86 303q0 84 24.5 145.5t62.5 95.5t98.5 53t113.5 24.5t127 5.5h256q0 113 -35 152.5t-176 39.5q-45 0 -73.5 -3t-66.5 -12t-57.5 -34t-19.5 -61h-225q0 92 36.5 155.5t105.5 95t142.5 44t169.5 12.5q424 0 424 -365v-651h-207v82q-113 -98 -311 -98q-190 0 -289.5 72.5 t-99.5 246.5zM317 307q0 -70 41 -101.5t154 -31.5q166 0 213 59.5t47 204.5h-268q-109 0 -148 -26.5t-39 -104.5zM148 1255q12 6 65.5 34t73.5 37t67.5 25.5t77 16.5t70.5 -8t78 -31q8 -6 29.5 -19.5t27.5 -16.5t23.5 -10t29 -6t30 2t39 9t46.5 23l109 55l73 -145l-157 -80 q-147 -74 -273 4q-12 6 -33.5 21.5t-29.5 19.5t-25.5 10t-32 4t-38 -9t-52.5 -22l-118 -59z" />
<glyph unicode="&#x203a;" horiz-adv-x="1150" d="M100 499.5q0 155.5 22.5 250t84.5 153.5q115 113 368.5 113t368.5 -113q61 -59 84 -153.5t23 -250t-22.5 -249.5t-84.5 -154q-115 -113 -368.5 -112.5t-368.5 112.5q-61 59 -84 153.5t-23 250zM332 499.5q0 -182.5 43 -247t200.5 -64.5t200.5 64.5t43 247t-43 247 t-200.5 64.5t-200.5 -64.5t-43 -247zM164 1255q12 6 65.5 34t73.5 37t67.5 25.5t77 16.5t70.5 -8t78 -31q8 -6 29.5 -19.5t27.5 -16.5t23.5 -10t29 -6t30 2t39 9t46.5 23l109 55l73 -145l-157 -80q-147 -74 -273 4q-12 6 -33.5 21.5t-29.5 19.5t-25.5 10t-32 4t-38 -9 t-52.5 -22l-118 -59z" />
<glyph unicode="&#x205f;" horiz-adv-x="440" />
<glyph unicode="&#x20ac;" horiz-adv-x="1333" d="M16 0l529 1366h248l524 -1366h-264l-127 348h-533l-125 -348h-252zM469 557h383l-190 541zM325 1646q0 63 29 91t90 28q121 0 121 -119q0 -121 -121 -121q-119 0 -119 121zM768 1646q0 63 28.5 91t90.5 28q121 0 120 -119q0 -121 -120 -121q-119 0 -119 121z" />
<glyph unicode="&#x2122;" horiz-adv-x="1150" d="M100 499.5q0 155.5 22.5 250t84.5 153.5q115 113 368.5 113t368.5 -113q61 -59 84 -153.5t23 -250t-22.5 -249.5t-84.5 -154q-115 -113 -368.5 -112.5t-368.5 112.5q-61 59 -84 153.5t-23 250zM332 499.5q0 -182.5 43 -247t200.5 -64.5t200.5 64.5t43 247t-43 247 t-200.5 64.5t-200.5 -64.5t-43 -247zM207 1106l264 260h225l264 -260h-231l-145 141l-142 -141h-235z" />
<glyph unicode="&#xe000;" horiz-adv-x="1000" d="M0 1000h1000v-1000h-1000v1000z" />
<glyph unicode="&#xfb01;" horiz-adv-x="1417" d="M1045 1255q0 125 127 125t127 -125q0 -59 -33 -93t-94.5 -34t-94 34t-32.5 93zM1057 0v999h231v-999h-231zM25 807v192h159v101q0 166 86 250q98 94 301 94q344 0 344 -242h-219q-6 57 -135 58q-25 0 -45 -3.5t-34.5 -6.5t-26 -13t-19.5 -15t-13 -21.5t-8 -21.5t-4 -27 t-1 -28v-31v-32v-62h344v-192h-338v-807h-232v807h-159z" />
<glyph unicode="&#xfb02;" horiz-adv-x="1415" d="M1057 0v1427h231v-1427h-231zM25 807v192h159v101q0 166 86 250q98 94 301 94q344 0 344 -242h-219q-6 57 -135 58q-25 0 -45 -3.5t-34.5 -6.5t-26 -13t-19.5 -15t-13 -21.5t-8 -21.5t-4 -27t-1 -28v-31v-32v-62h344v-192h-338v-807h-232v807h-159z" />
<glyph unicode="&#xfb03;" horiz-adv-x="2344" d="M1972 1255q0 125 127 125t127 -125q0 -59 -33 -93t-94.5 -34t-94 34t-32.5 93zM1984 0v999h231v-999h-231zM953 807v192h159v101q0 166 86 250q98 94 301 94q344 0 344 -242h-219q-6 57 -135 58q-25 0 -45 -3.5t-34.5 -6.5t-26 -13t-19.5 -15t-13 -21.5t-8 -21.5t-4 -27 t-1 -28v-31v-32v-62h344v-192h-338v-807h-232v807h-159zM25 807v192h159v101q0 166 86 250q98 94 301 94q344 0 344 -242h-219q-6 57 -135 58q-25 0 -45 -3.5t-34.5 -6.5t-26 -13t-19.5 -15t-13 -21.5t-8 -21.5t-4 -27t-1 -28v-31v-32v-62h344v-192h-338v-807h-232v807h-159 z" />
<glyph unicode="&#xfb04;" horiz-adv-x="2342" d="M1984 0v1427h231v-1427h-231zM953 807v192h159v101q0 166 86 250q98 94 301 94q344 0 344 -242h-219q-6 57 -135 58q-25 0 -45 -3.5t-34.5 -6.5t-26 -13t-19.5 -15t-13 -21.5t-8 -21.5t-4 -27t-1 -28v-31v-32v-62h344v-192h-338v-807h-232v807h-159zM25 807v192h159v101 q0 166 86 250q98 94 301 94q344 0 344 -242h-219q-6 57 -135 58q-25 0 -45 -3.5t-34.5 -6.5t-26 -13t-19.5 -15t-13 -21.5t-8 -21.5t-4 -27t-1 -28v-31v-32v-62h344v-192h-338v-807h-232v807h-159z" />
</font>
</defs>
</svg>
