<?xml version="1.0" standalone="no"?>
<!DOCTYPE svg PUBLIC "-//W3C//DTD SVG 1.1//EN" "http://www.w3.org/Graphics/SVG/1.1/DTD/svg11.dtd" >
<svg xmlns="http://www.w3.org/2000/svg">
<metadata>
This is a custom SVG webfont generated by Font Squirrel.
Copyright   : cThe digitally encoded machine readable outline data for producing the typefaces licensed to you is copyrighted C 2000 by The Foundry London All Rights Reserved
</metadata>
<defs>
<font id="FoundryMonolineRegular" horiz-adv-x="1161" >
<font-face units-per-em="2048" ascent="1487" descent="-561" />
<missing-glyph horiz-adv-x="522" />
<glyph unicode=" "  horiz-adv-x="522" />
<glyph unicode="&#x09;" horiz-adv-x="522" />
<glyph unicode="&#xa0;" horiz-adv-x="522" />
<glyph unicode="!" horiz-adv-x="583" d="M209 65.5q0 81.5 82 81.5q84 0 84 -81.5t-82 -81.5q-84 0 -84 81.5zM233 389v977h117v-977h-117z" />
<glyph unicode="&#x22;" horiz-adv-x="890" d="M238 922v444h108v-444h-108zM543 922v444h108v-444h-108z" />
<glyph unicode="#" d="M37 465v104h260l76 281h-232v104h260l123 467h107l-125 -467h276l125 467h107l-125 -467h233v-104h-260l-76 -281h232v-104h-258l-123 -465h-107l123 465h-276l-123 -465h-107l123 465h-233zM406 569h274l74 281h-275z" />
<glyph unicode="$" horiz-adv-x="1138" d="M145 295h115q0 -100 54.5 -142t195.5 -44v546q-188 16 -271 89t-83 264q0 182 89 267t265 91v195h111v-195q186 -4 271 -70.5t85 -224.5h-115q0 102 -50 143t-191 43v-493q113 -8 177 -24.5t111 -58.5t64.5 -110.5t17.5 -181.5q0 -197 -89 -290t-281 -99v-203h-111v203 q-186 4 -275.5 71.5t-89.5 223.5zM268 997q0 -135 52.5 -177t189.5 -50v487q-133 -4 -187.5 -61.5t-54.5 -198.5zM621 106q141 4 199.5 71t58.5 220q0 156 -48.5 199t-209.5 55v-545z" />
<glyph unicode="%" horiz-adv-x="1771" d="M168 848v80v41v35q0 66 1 97.5t8 84.5t23.5 80.5t45 58.5t77 43t113.5 12q57 0 100.5 -10t72 -29.5t48 -46t28.5 -58.5t14.5 -69t5.5 -75v-80v-43q0 -197 -15 -254q-37 -143 -205 -158q-23 -2 -49 -2q-57 0 -100 11.5t-71.5 30.5t-48 46t-29 59.5t-14.5 69.5t-5 76z M272 969q0 -209 21 -256q29 -63 143 -64q127 0 152 80q14 45 14 240q0 213 -20 254q-29 61 -146 61q-125 0 -149 -78q-15 -44 -15 -237zM496 0l688 1366h108l-690 -1366h-106zM1067 276v80v41v35q0 66 1 97.5t8 85t23.5 81t45.5 58t77 43t113 12.5q57 0 100.5 -10.5 t72 -29.5t48 -46t28.5 -58.5t14.5 -68.5t5.5 -76v-80v-43q0 -197 -15 -254q-37 -143 -205 -157q-23 -2 -49 -2q-57 0 -100 11t-71.5 30.5t-48 46t-29 59.5t-14.5 69.5t-5 75.5zM1171 397q0 -209 21 -256q29 -63 143 -63q127 0 152 80q14 45 14 239q0 213 -20 254 q-29 61 -146 62q-125 0 -149 -78q-15 -45 -15 -238z" />
<glyph unicode="&#x26;" horiz-adv-x="1241" d="M141 379q0 145 43 227t138 115q-96 39 -132 106.5t-36 194.5q0 195 95 276.5t314 81.5q207 0 308.5 -69.5t101.5 -239.5h-117q0 111 -66.5 154t-226.5 43q-174 0 -233.5 -51.5t-59.5 -198.5q0 -145 69 -193.5t224 -48.5h369v131h115v-131h122v-112h-122v-211 q0 -141 -18.5 -224.5t-80.5 -140.5q-102 -102 -356 -102q-240 0 -345.5 84t-105.5 309zM258 373q0 -170 78 -222.5t256 -52.5q205 0 274 70q39 37 52.5 101.5t13.5 183.5v211h-369q-178 0 -241.5 -58.5t-63.5 -232.5z" />
<glyph unicode="'" horiz-adv-x="585" d="M238 922v444h108v-444h-108z" />
<glyph unicode="(" horiz-adv-x="606" d="M70 627q0 580 63 792q39 125 132 178.5t270 53.5v-105q-133 0 -192.5 -31.5t-88.5 -101.5q-29 -74 -49.5 -292t-20.5 -492.5t20.5 -491.5t49.5 -291q29 -70 88 -101.5t193 -31.5v-104q-176 0 -269.5 53t-132.5 178q-63 214 -63 787z" />
<glyph unicode=")" horiz-adv-x="606" d="M70 -287q135 0 194.5 32t85.5 101q31 72 50.5 288t19.5 494.5t-19.5 495.5t-50.5 289q-27 70 -86 101.5t-194 31.5v105q178 0 271 -53.5t130 -178.5q63 -203 64 -792q0 -584 -64 -787q-37 -125 -130 -178t-271 -53v104z" />
<glyph unicode="*" horiz-adv-x="1081" d="M45 989l33 94l409 -125v408h105v-408l409 125l33 -94l-411 -127l251 -327l-83 -60l-252 328l-250 -328l-84 60l252 327z" />
<glyph unicode="+" d="M88 438v109h432v436h115v-436h434v-109h-434v-438h-115v438h-432z" />
<glyph unicode="," horiz-adv-x="436" d="M51 -240q82 72 97.5 100.5t15.5 116.5v166h108v-166q0 -88 -17 -137t-73 -96l-61 -53z" />
<glyph unicode="-" horiz-adv-x="993" d="M184 438v109h623v-109h-623z" />
<glyph unicode="." horiz-adv-x="434" d="M135 65.5q0 81.5 82 81.5t82 -81.5t-82 -81.5t-82 81.5z" />
<glyph unicode="/" horiz-adv-x="944" d="M-18 -172l866 1718h117l-869 -1718h-114z" />
<glyph unicode="0" d="M147 682q0 248 10.5 347t41.5 165q92 186 381 186q291 0 381 -186q33 -63 42 -161.5t9 -350.5q0 -229 -6.5 -320.5t-26.5 -148.5q-78 -229 -399 -229q-319 0 -400 229q-33 96 -33 469zM266 682q0 -373 39 -461q31 -66 94.5 -96.5t180.5 -30.5q219 0 274 127 q23 49 31 144.5t8 316.5q0 342 -29 428q-25 84 -89 122t-195 38q-129 0 -193.5 -38t-91.5 -122q-29 -96 -29 -428z" />
<glyph unicode="1" horiz-adv-x="927" d="M94 1053l357 313h108v-1257h332v-109h-782v109h331v1108l-268 -242z" />
<glyph unicode="2" horiz-adv-x="1136" d="M162 0v307q0 55 10 100.5t24.5 77t45 59t53 44t71 34t77 26.5t87.5 26q238 68 287 121q66 66 66 198q0 154 -64.5 215.5t-236.5 61.5q-160 0 -229.5 -43t-69.5 -156h-117q0 170 102.5 239.5t309.5 69.5q213 0 315 -82q109 -84 108 -305q0 -188 -102 -284 q-76 -72 -338 -144q-96 -27 -142 -43t-82 -49t-46 -79t-10 -126v-159h718v-109h-837z" />
<glyph unicode="3" horiz-adv-x="1138" d="M129 1071q0 170 107.5 239.5t320.5 69.5q225 0 322.5 -81.5t97.5 -276.5q0 -238 -150 -311q100 -37 131 -116t31 -214q0 -213 -105.5 -305t-326.5 -92q-92 0 -160.5 12t-130 45t-93.5 96.5t-32 157.5h119q0 -111 68.5 -156t230.5 -45q164 0 237.5 59.5t73.5 221.5 q0 176 -60 227t-253 51h-178v111h178q164 0 232.5 49t68.5 205q0 147 -60.5 199.5t-240.5 52.5q-164 0 -236.5 -45t-72.5 -154h-119z" />
<glyph unicode="4" horiz-adv-x="1140" d="M104 393v105l611 868h114v-864h201v-109h-201v-393h-114v393h-611zM236 502h479v690z" />
<glyph unicode="5" d="M166 295h115q0 -111 64.5 -156t223.5 -45q180 0 250 67.5t70 250.5q0 186 -55.5 265t-237.5 79q-297 0 -297 -170h-113v780h777v-111h-662v-479q78 90 299 90q233 0 320.5 -109.5t87.5 -336.5q0 -238 -101 -336q-102 -100 -338 -100q-203 0 -303 69.5t-100 241.5z" />
<glyph unicode="6" horiz-adv-x="1148" d="M147 623q0 336 27 477q49 281 418 280q389 0 389 -309h-115q0 102 -66.5 150.5t-205.5 48.5q-133 0 -200.5 -39t-92.5 -123q-27 -90 -33 -385q111 143 326 143q223 0 318.5 -103.5t95.5 -340.5q0 -227 -101.5 -332.5t-320.5 -105.5q-147 0 -251 58t-145 169 q-43 113 -43 412zM274 430q0 -178 74 -257t236 -79q168 0 236.5 73t68.5 253q0 193 -62.5 264.5t-222.5 71.5q-330 0 -330 -326z" />
<glyph unicode="7" horiz-adv-x="942" d="M47 1255v111h846v-106l-600 -1260h-127l604 1255h-723z" />
<glyph unicode="8" horiz-adv-x="1165" d="M147 377q0 143 43 220t140 112q-94 39 -132 112.5t-38 200.5q0 195 98 276.5t324 81.5q227 0 325.5 -81.5t98.5 -276.5q0 -129 -36 -201.5t-132 -111.5q96 -35 138 -112t42 -220q0 -199 -92 -293q-100 -100 -342 -100q-244 0 -342 100q-95 94 -95 293zM266 373 q0 -168 68.5 -223.5t247.5 -55.5q176 0 246.5 55.5t70.5 221.5q0 170 -76 229q-66 51 -239 51q-186 0 -252 -53t-66 -225zM279 1022q0 -156 61 -205q78 -55 242 -55q170 0 243 55q59 45 60 201h2q0 147 -62.5 199.5t-240.5 52.5q-180 0 -242.5 -52.5t-62.5 -195.5z" />
<glyph unicode="9" horiz-adv-x="1150" d="M141 942q0 225 102.5 331.5t319.5 106.5q150 0 252.5 -58t142.5 -169q43 -113 43 -412q0 -336 -26 -477q-49 -281 -418 -280q-389 0 -389 309h115q0 -102 66.5 -150.5t205.5 -48.5q135 0 201.5 39t91.5 123q33 102 33 385q-111 -143 -326 -143q-223 0 -318.5 103 t-95.5 341zM260 944q0 -193 62.5 -264.5t222.5 -71.5q168 0 248.5 80t80.5 246q0 178 -73.5 257t-235.5 79q-168 0 -236.5 -73t-68.5 -253z" />
<glyph unicode=":" horiz-adv-x="436" d="M135 65.5q0 81.5 82 81.5t82 -81.5t-82 -81.5t-82 81.5zM135 917.5q0 81.5 82 81.5t82 -81.5t-82 -81.5t-82 81.5z" />
<glyph unicode=";" horiz-adv-x="436" d="M51 -240q82 72 97.5 100.5t15.5 116.5v166h108v-166q0 -88 -17 -137t-73 -96l-61 -53zM135 917.5q0 81.5 82 81.5t82 -81.5t-82 -81.5t-82 81.5z" />
<glyph unicode="&#x3c;" d="M80 438v111l956 434l43 -106l-860 -381l860 -390l-43 -106z" />
<glyph unicode="=" d="M92 242v108h975v-108h-975zM92 637v108h975v-108h-975z" />
<glyph unicode="&#x3e;" d="M80 106l860 390l-860 381l43 106l956 -434v-111l-956 -438z" />
<glyph unicode="?" horiz-adv-x="870" d="M61 1071q0 168 93.5 238.5t281.5 70.5q197 0 289 -78.5t92 -267.5q0 -129 -54 -204.5t-173 -127.5q-88 -39 -108.5 -78.5t-20.5 -148.5v-86h-117v119q0 113 37 176.5t89 87t104.5 45t89 72.5t36.5 145q0 133 -55 184.5t-205 51.5q-147 0 -206.5 -44t-59.5 -155h-113z M322 65.5q0 81.5 81.5 81.5t81.5 -81.5t-81.5 -81.5t-81.5 81.5z" />
<glyph unicode="@" horiz-adv-x="1581" d="M160 645q0 473 147 610q137 125 490 125q369 0 501 -120q68 -61 95.5 -166t27.5 -316q0 -360 -104 -461q-53 -53 -121 -69.5t-170 -14.5v86q-88 -98 -260 -98q-111 0 -180.5 30t-101 91t-42 125.5t-10.5 167.5q0 104 9.5 167.5t41 127t101 93.5t180.5 30q172 0 260 -99 v84h102v-700q66 -2 105 37q82 82 82 420q0 178 -23.5 256.5t-72.5 126.5q-106 100 -416 100q-311 0 -416 -104q-115 -117 -115 -539q0 -453 109 -561q61 -61 158.5 -85t271.5 -24q180 0 297 35t174 147l92 -47q-39 -78 -102.5 -129t-148.5 -72.5t-155.5 -28.5t-166.5 -7 q-201 0 -316.5 32.5t-193.5 110.5q-74 74 -101.5 230.5t-27.5 408.5zM545 635q0 -86 5 -132t25.5 -93.5t64.5 -65.5t120 -18q147 0 205.5 65.5t58.5 243.5q0 180 -59.5 246.5t-206.5 66.5q-137 0 -175 -72.5t-38 -240.5z" />
<glyph unicode="A" horiz-adv-x="1259" d="M43 0l528 1366h115l528 -1366h-131l-153 403h-608l-152 -403h-127zM362 510h527l-262 704z" />
<glyph unicode="B" horiz-adv-x="1329" d="M188 0v1366h457q227 0 289 -12q160 -33 199 -185q16 -63 16 -149q0 -252 -148 -315q160 -72 160 -324q0 -207 -84 -287q-55 -55 -115.5 -71.5t-158.5 -20.5q-41 -2 -146 -2h-469zM309 111h332h39h95q30 0 77 5t68.5 15t50 28.5t40 47.5t20.5 70.5t9 99.5q0 156 -53 207 q-41 41 -103.5 52t-242.5 11h-332v-536zM309 756h336h47q82 0 120 1t89 13t73.5 38t39 75t16.5 123q0 53 -9 93t-19.5 66.5t-39 45t-45 27.5t-61.5 13t-64 5q-10 1 -30 1t-49 -1q-59 -1 -82 -1h-322v-499z" />
<glyph unicode="C" horiz-adv-x="1312" d="M162 682q0 137 3 203.5t17.5 165t47 144.5t91 97t151.5 69.5t224 18.5q250 0 361.5 -83t111.5 -285h-114q0 145 -79 199.5t-298 54.5q-250 0 -328 -111q-37 -57 -52 -147t-15 -326t15 -325t52 -146q78 -113 328 -113q219 0 298 54.5t79 199.5h114q0 -203 -111.5 -285.5 t-361.5 -82.5q-131 0 -224 19.5t-151.5 69.5t-91 96t-47 144.5t-17.5 165t-3 203.5z" />
<glyph unicode="D" horiz-adv-x="1366" d="M188 0v1366h478q190 0 293.5 -38t162.5 -134q47 -74 63.5 -180.5t16.5 -331.5q0 -223 -16.5 -329.5t-63.5 -180.5q-61 -96 -162.5 -134t-293.5 -38h-478zM309 113h344q164 0 241 23.5t116 82.5q39 57 55 155.5t16 307.5q0 211 -16 308t-55 155q-41 59 -117 83.5 t-240 24.5h-344v-1140z" />
<glyph unicode="E" horiz-adv-x="1200" d="M188 0v1366h854v-111h-735v-499h715v-109h-715v-536h735v-111h-854z" />
<glyph unicode="F" horiz-adv-x="1148" d="M188 0v1366h834v-111h-713v-499h695v-111h-695v-645h-121z" />
<glyph unicode="G" horiz-adv-x="1363" d="M162 682q0 84 1 126t4 111.5t10 105.5t19.5 89t33 81t49 63.5t68.5 53t91 36t117 25.5t145 7q250 0 371 -84t121 -284h-119q0 145 -86 199.5t-305 54.5q-252 0 -334 -113q-39 -55 -52 -143t-13 -328q0 -236 15 -325t52 -146q78 -113 328 -113q252 0 340 129 q37 51 49 136.5t12 273.5v10h-409v109h522v-383v-373h-109v141q-125 -158 -432 -157q-143 0 -238.5 36.5t-145.5 85t-73.5 157t-27.5 184t-4 235.5z" />
<glyph unicode="H" horiz-adv-x="1337" d="M188 0v1366h121v-610h717v610h121v-1366h-121v647h-717v-647h-121z" />
<glyph unicode="I" horiz-adv-x="499" d="M188 0v1366h121v-1366h-121z" />
<glyph unicode="J" horiz-adv-x="1089" d="M80 350h115q0 -150 68.5 -202t232.5 -52q127 0 199.5 37t86.5 141q4 29 4 148v944h121v-940q0 -127 -8 -178q-23 -147 -127 -205.5t-276 -58.5q-213 0 -314.5 81.5t-101.5 284.5z" />
<glyph unicode="K" horiz-adv-x="1177" d="M188 0v1366h119v-610l688 610h162l-749 -655l751 -711h-174l-676 647v-647h-121z" />
<glyph unicode="L" horiz-adv-x="1048" d="M188 0v1366h121v-1255h713v-111h-834z" />
<glyph unicode="M" horiz-adv-x="1685" d="M188 0v1366h148l508 -1225l504 1227h147v-1368h-115v1165l-479 -1165h-119l-479 1163v-1163h-115z" />
<glyph unicode="N" horiz-adv-x="1333" d="M188 0v1366h136l704 -1182v1182h115v-1366h-137l-703 1184v-1184h-115z" />
<glyph unicode="O" horiz-adv-x="1372" d="M162 680v4q0 305 28 414q51 190 236 250q102 33 258 32q154 0 256 -35.5t155.5 -81.5t79 -151.5t29.5 -180.5t4 -235v-10q0 -305 -26 -414q-49 -195 -234 -254q-104 -35 -262 -34q-154 0 -256 36.5t-155.5 84t-79 155t-29.5 183t-4 237.5zM283 682q0 -238 13 -326 t52 -143q80 -115 338 -115q256 0 336 117q39 55 52 142t13 327t-13 326t-52 141q-78 115 -338 115q-254 0 -336 -117q-39 -55 -52 -142t-13 -325z" />
<glyph unicode="P" horiz-adv-x="1253" d="M188 0v1366h449q84 0 129 -1t109.5 -8t97.5 -21.5t72.5 -41t58 -66.5t32 -98.5t13.5 -136.5q0 -90 -14.5 -155.5t-49 -106.5t-71.5 -65.5t-104.5 -36t-123 -14.5t-149.5 -3h-328v-612h-121zM309 723h324q197 0 250 14q127 37 143 197q2 27 2 55q0 49 -5 88t-22.5 66.5 t-30 47t-45 32t-50 19.5t-63.5 10t-66 3h-74h-39h-324v-532z" />
<glyph unicode="Q" horiz-adv-x="1372" d="M162 682q0 303 26 412q49 193 232 252q104 35 264 34q111 0 194 -18.5t139 -43t93 -80.5t56.5 -98t29.5 -131t11 -144.5t1 -170.5v-10q0 -307 -30 -418q-51 -193 -238 -250q-49 -16 -109 -24l105 -236l-105 -45l-122 273q-88 0 -160 9t-126 24.5t-95 47t-69 60.5t-46 82 t-28.5 93t-15.5 113.5t-6 125t-1 143.5zM283 680q0 -238 13 -325t52 -142q80 -113 316 -115l-86 199l104 43l102 -238q174 16 238 113q39 55 52 142t13 325q0 240 -13 327t-52 142q-78 115 -338 115q-254 0 -336 -117q-39 -55 -52 -143t-13 -326z" />
<glyph unicode="R" horiz-adv-x="1327" d="M188 0v1366h449q88 0 133 -1t109.5 -8t97.5 -22.5t71.5 -43t57 -68.5t31 -101.5t12.5 -142.5q0 -231 -154 -295q31 -10 56.5 -26.5t41 -32t28 -44t17.5 -46t8 -52t3 -48.5v-51v-44v-340h-119v336q0 80 -1 109.5t-12 68.5t-36 63.5t-72 35t-92 12.5t-149 2h-37h-322v-627 h-121zM309 737h336h51q82 0 119 1t88 13.5t72.5 38t38 73.5t16.5 122q0 66 -10 114t-39 77.5t-52.5 46t-76.5 23.5t-84 8t-100 1h-35h-324v-518z" />
<glyph unicode="S" horiz-adv-x="1312" d="M143 356h119q0 -147 85 -202.5t310 -55.5q223 0 305 66.5t82 228.5q0 170 -83 213q-10 6 -22.5 10.5t-29 8.5t-30 6t-34 4t-33.5 3t-38.5 1t-38 1t-41.5 1h-41q-236 4 -317 31q-180 57 -193 286v33q0 217 116 303t390 86q268 0 386 -83t118 -285h-115q0 70 -20.5 118 t-50 74.5t-85 41t-105.5 17.5t-132 3q-225 0 -303 -57.5t-78 -215.5q0 -156 86 -202q61 -33 307 -37q229 -4 308 -25q180 -51 200 -260q2 -31 2 -66q0 -219 -120.5 -319t-393.5 -100q-270 0 -390 83.5t-120 288.5z" />
<glyph unicode="T" horiz-adv-x="1110" d="M55 1255v111h998v-111h-439v-1255h-120v1255h-439z" />
<glyph unicode="U" horiz-adv-x="1337" d="M180 688v678h121v-678v-104v-98q0 -30 1 -78t5 -73.5t11.5 -54t19.5 -49.5q76 -133 330 -133q258 0 329 133q14 25 22.5 54.5t11.5 82t4 83.5q1 15 1 43.5t-1 70.5q-1 84 -1 123v678h121v-678q0 -244 -4 -311q-2 -96 -29 -160q-88 -233 -454 -233q-365 0 -455 233 q-23 63 -29 160q-4 135 -4 311z" />
<glyph unicode="V" d="M12 1366h129l441 -1210l440 1210h125l-512 -1366h-115z" />
<glyph unicode="W" horiz-adv-x="1792" d="M86 1366h125l291 -1176l329 1176h130l327 -1176l297 1176h119l-350 -1366h-129l-330 1188l-330 -1188h-135z" />
<glyph unicode="X" horiz-adv-x="1138" d="M57 0l439 696l-426 670h139l358 -571l359 571h141l-428 -670l440 -696h-139l-373 596l-368 -596h-142z" />
<glyph unicode="Y" horiz-adv-x="1085" d="M8 1366h137l400 -649l397 649h133l-473 -766v-600h-121v600z" />
<glyph unicode="Z" horiz-adv-x="1236" d="M139 0v109l815 1146h-815v111h957v-111l-815 -1144h815v-111h-957z" />
<glyph unicode="[" horiz-adv-x="606" d="M113 -391v2042h422v-105h-308v-1833h308v-104h-422z" />
<glyph unicode="\" horiz-adv-x="1069" d="M43 1546h115l866 -1718h-115z" />
<glyph unicode="]" horiz-adv-x="606" d="M70 -287h307v1833h-307v105h422v-2042h-422v104z" />
<glyph unicode="^" d="M88 428l434 956h111l438 -956l-106 -43l-390 860l-380 -860z" />
<glyph unicode="_" horiz-adv-x="1034" d="M4 -287h1026v-112h-1026v112z" />
<glyph unicode="`" horiz-adv-x="851" d="M223 1366h137l267 -258h-138z" />
<glyph unicode="a" horiz-adv-x="1093" d="M106 281q0 98 29 161.5t87.5 94t121 42t154.5 11.5h329v33v29v33q0 9 -1 30.5t-4 33t-8 28t-13 29.5t-21 23q-57 57 -239 58q-68 0 -108 -4t-90 -20.5t-74.5 -55.5t-24.5 -102h-111q0 164 108.5 229t315.5 65q344 0 383 -239q8 -43 8 -195v-565h-112v111 q-84 -127 -349 -127q-195 0 -288 70.5t-93 226.5zM227 283q0 -102 56.5 -147.5t197.5 -45.5q119 0 189.5 22.5t104.5 79t43 118t9 173.5h-338q-139 0 -200.5 -38.5t-61.5 -161.5z" />
<glyph unicode="b" horiz-adv-x="1138" d="M162 0v1427h119v-555q102 127 323 127q111 0 188.5 -28.5t119.5 -69.5t63.5 -114.5t27 -134t5.5 -158.5q0 -102 -6.5 -169t-29 -137.5t-65.5 -110.5t-118.5 -66.5t-184.5 -26.5q-229 0 -328 135v-119h-114zM279 489.5q0 -229.5 72.5 -310.5t262.5 -81q170 0 222.5 89 t52.5 302t-52.5 305.5t-222.5 92.5q-190 0 -262.5 -84t-72.5 -313.5z" />
<glyph unicode="c" horiz-adv-x="1069" d="M129 489.5q0 104.5 7 173t32 138t71 109.5t124.5 64.5t193.5 24.5q397 0 397 -294h-110q0 59 -23.5 97t-69.5 55t-89.5 23.5t-102.5 6.5q-86 0 -144.5 -17.5t-91 -45t-50 -83t-21.5 -106.5t-4 -141.5t4 -142.5t21.5 -107.5t50 -83t91 -45t144.5 -17.5q59 0 102.5 5.5 t89.5 22.5t69.5 55t23.5 98h110q0 -295 -397 -295q-115 0 -193.5 24.5t-124.5 63.5t-71 108.5t-32 137t-7 172z" />
<glyph unicode="d" horiz-adv-x="1138" d="M129 494q0 98 5 158.5t26.5 134t63.5 114.5t120 69.5t188 28.5q225 0 324 -127v555h119v-1427h-115v119q-98 -135 -328 -135q-109 0 -184.5 25.5t-117.5 66.5t-65.5 111.5t-29.5 137.5t-6 169zM248 489q0 -213 52 -302t222 -89q193 0 264.5 81t71.5 310 q0 231 -72.5 314.5t-263.5 83.5q-170 0 -222 -92.5t-52 -305.5z" />
<glyph unicode="e" horiz-adv-x="1097" d="M129 487.5q0 133.5 14.5 218.5t58.5 156.5t129 104t218 32.5q117 0 196.5 -26.5t122.5 -65.5t65.5 -116.5t28 -144t5.5 -183.5h-719q0 -205 57 -287t252 -82q57 0 101 6t89.5 23.5t70 56.5t24.5 99h110q0 -295 -397 -295q-137 0 -224 31.5t-130 103t-57.5 153.5 t-14.5 215.5zM250 571h602q0 180 -63.5 250t-239.5 70q-168 0 -233.5 -75t-65.5 -245z" />
<glyph unicode="f" horiz-adv-x="909" d="M53 877v106h166v168q0 291 340 291q322 0 328 -223h-117q-6 63 -58.5 86.5t-148.5 23.5q-117 0 -171 -37t-54 -141v-168h389v-106h-389v-877h-119v877h-166z" />
<glyph unicode="g" horiz-adv-x="1138" d="M129 502q0 123 12.5 199.5t51 151.5t122.5 110.5t215 35.5q231 0 330 -127v111h115v-891q0 -182 -8 -227q-39 -262 -424 -262q-176 0 -282.5 65.5t-106.5 208.5h114q0 -166 269 -166q289 0 313 185q4 33 5 76q1 22 1 41.5t-1 36.5v24q0 25 1 53q-100 -129 -321 -129 q-109 0 -185 25.5t-119 64.5t-66.5 109.5t-29.5 136.5t-6 168zM248 498q0 -209 52 -297t222 -88q190 0 263 79.5t73 305.5q0 223 -72.5 306t-263.5 83q-172 0 -223 -88t-51 -301z" />
<glyph unicode="h" horiz-adv-x="1101" d="M162 0v1427h119v-555q100 127 313 127q68 0 121 -9t90 -26.5t64.5 -42t43 -54t26.5 -64.5t13 -74t4 -80q1 -20 1 -41t-1 -43v-47v-518h-118v518v49v84q0 27 -4.5 69t-14.5 60.5t-27.5 44t-44 35.5t-67.5 18.5t-94 8.5q-63 0 -112.5 -13.5t-82.5 -32t-54.5 -56 t-32.5 -65.5t-16 -85t-6 -88t-1 -98v-449h-119z" />
<glyph unicode="i" horiz-adv-x="444" d="M143 1303q0 78 78 77q80 0 80 -77q0 -80 -80 -80q-78 0 -78 80zM162 0v983h119v-983h-119z" />
<glyph unicode="j" horiz-adv-x="444" d="M-389 -143h115q0 -10 1 -20.5t12 -36t31.5 -44t64.5 -33t104 -14.5q121 0 186 66q10 10 16 20t10.5 24.5t7.5 25t4 28.5t1 27v28v25v1030h119v-1077q0 -139 -74 -213q-94 -90 -270 -90q-150 0 -238 62.5t-90 191.5zM143 1303q0 78 78 77q80 0 80 -77q0 -80 -80 -80 q-78 0 -78 80z" />
<glyph unicode="k" horiz-adv-x="962" d="M162 0v1427h119v-841l499 407h164l-569 -461l575 -532h-166l-503 475v-475h-119z" />
<glyph unicode="l" horiz-adv-x="444" d="M162 0v1427h119v-1427h-119z" />
<glyph unicode="m" horiz-adv-x="1650" d="M162 0v983h114v-115q88 131 295 131q227 0 291 -157q102 158 320 157q233 0 297 -155q27 -66 26 -250v-594h-119v598q0 57 -1 85t-7 69t-19 59t-38 39.5t-62.5 29t-93.5 7.5q-66 0 -115 -16.5t-77.5 -52.5t-46 -68.5t-24.5 -93t-8 -95.5t-1 -104v-17v-440h-119v598 q0 57 -1 85t-7 69t-19.5 59t-38 39.5t-62.5 29t-93 7.5q-57 0 -101 -14.5t-73 -35t-48.5 -59.5t-28.5 -68.5t-14 -83t-6 -84t-1 -89.5v-17v-436h-119z" />
<glyph unicode="n" horiz-adv-x="1101" d="M162 0v983h114v-115q98 131 318 131q68 0 121 -9t90 -26.5t64.5 -42t43 -54t26.5 -64.5t13 -74t4 -80q1 -20 1 -41t-1 -43v-47v-518h-118v518v49v84q0 27 -4.5 69t-14.5 60.5t-27.5 44t-44 35.5t-67.5 18.5t-94 8.5q-63 0 -112.5 -13.5t-82.5 -32t-54.5 -56t-32.5 -65.5 t-16 -85t-6 -88t-1 -98v-449h-119z" />
<glyph unicode="o" horiz-adv-x="1130" d="M129 491.5q0 161.5 20.5 253t73.5 146.5q109 109 342.5 108.5t339.5 -108.5q53 -55 73.5 -145.5t20.5 -254t-20.5 -254t-73.5 -145.5q-106 -109 -339.5 -108.5t-342.5 108.5q-53 55 -73.5 146.5t-20.5 253zM248 496q0 -115 7 -173.5t37 -118t96.5 -83t176.5 -23.5 q66 0 114 9.5t82 24.5t56.5 45t34.5 56.5t19.5 74.5t8.5 85t1 103q0 115 -8.5 175t-38 116.5t-95 78t-174.5 21.5q-90 0 -150.5 -18.5t-93 -45t-49 -83t-20.5 -105.5t-4 -139z" />
<glyph unicode="p" horiz-adv-x="1138" d="M162 -391v1374h114v-119q98 135 328 135q109 0 184.5 -26.5t118.5 -66.5t65.5 -110.5t29 -137t6.5 -169.5q0 -98 -5.5 -158.5t-27 -134t-63.5 -114.5t-119.5 -69.5t-188.5 -28.5q-221 0 -323 127v-502h-119zM279 491.5q0 -229.5 72.5 -311.5t262.5 -82q170 0 222.5 90.5 t52.5 303.5t-52.5 304t-222.5 91q-190 0 -262.5 -83t-72.5 -312.5z" />
<glyph unicode="q" horiz-adv-x="1138" d="M129 489q0 102 6 169t29.5 137.5t65.5 111.5t118 66.5t184 25.5q229 0 328 -135v119h115v-1374h-119v502q-98 -127 -324 -127q-111 0 -188.5 28.5t-119.5 69.5t-63.5 114.5t-26.5 134t-5 158.5zM248 492q0 -213 52 -303.5t222 -90.5q193 0 264.5 82t71.5 312 q0 231 -71.5 313t-264.5 82q-170 0 -222 -91t-52 -304z" />
<glyph unicode="r" horiz-adv-x="905" d="M162 0v983h114v-115q96 131 299 131q301 0 302 -286h-111q0 100 -47 137t-166 37q-57 0 -101 -15.5t-73 -35t-48.5 -59.5t-29.5 -68.5t-15 -84t-5 -81.5v-86v-31v-426h-119z" />
<glyph unicode="s" horiz-adv-x="1040" d="M117 279h110q0 -102 60.5 -141.5t220.5 -39.5q164 0 230.5 39t66.5 129q0 121 -45 144.5t-232 29.5q-193 6 -249 25q-141 55 -146 246q0 162 100.5 225t313.5 63q188 0 282.5 -65.5t94.5 -228.5h-111q0 100 -58.5 142t-205.5 42q-166 0 -231.5 -37t-65.5 -125 q0 -31 2 -53.5t10 -40t12.5 -28.5t22.5 -19t25.5 -13.5t37 -8.5t40 -3t52.5 -2t58 -2t76.5 -2t78 -4t66.5 -9t65.5 -17.5t48.5 -31t43 -48t22.5 -69.5t11.5 -95q0 -162 -100.5 -229.5t-313.5 -67.5q-205 0 -299 67.5t-94 227.5z" />
<glyph unicode="t" horiz-adv-x="929" d="M53 877v106h166v383h119v-383h448v-106h-448v-601q0 -104 47 -145t158 -41q117 0 166 44t49 145h110q0 -295 -329 -295q-164 0 -242 70.5t-78 221.5v601h-166z" />
<glyph unicode="u" horiz-adv-x="1101" d="M145 315v93v36v539h119v-518v-49q0 -78 1 -114t13.5 -85t38 -69.5t74.5 -37t125 -16.5q63 0 112.5 13.5t82 32t54 57.5t33 66.5t16.5 83.5t6 88t1 100v448h119v-983h-115v115q-98 -131 -317 -131q-76 0 -135.5 14t-97 31.5t-64.5 55.5t-39 64.5t-19.5 82.5t-7.5 83z" />
<glyph unicode="v" horiz-adv-x="946" d="M29 983h125l321 -842l316 842h124l-383 -983h-118z" />
<glyph unicode="w" horiz-adv-x="1429" d="M49 983h123l238 -817l243 817h119l248 -815l235 815h123l-297 -983h-125l-243 821l-242 -821h-125z" />
<glyph unicode="x" horiz-adv-x="946" d="M37 0l364 502l-350 481h146l278 -393l283 393h137l-352 -479l364 -504h-145l-293 414l-295 -414h-137z" />
<glyph unicode="y" horiz-adv-x="878" d="M8 983h125l299 -825l297 825h125l-516 -1372h-123l154 403z" />
<glyph unicode="z" horiz-adv-x="980" d="M102 0v96l627 781h-627v106h775v-96l-625 -778h625v-109h-775z" />
<glyph unicode="{" horiz-adv-x="751" d="M150 629q0 55 61 116l111 111q2 0 2 6v428q0 125 20.5 197t77.5 129q78 76 252 76v-105q-121 0 -174 -53q-59 -57 -60 -242v-413q0 -35 -19.5 -72t-36.5 -56.5t-58 -57.5t-50 -46q-20 -18 -2 -37l115 -108q49 -47 49 -125v-369q0 -182 62 -244q53 -51 174 -51v-104 q-174 0 -250 76q-59 57 -78.5 128.5t-19.5 196.5v379q0 27 -44 62.5t-88 81t-44 96.5z" />
<glyph unicode="|" horiz-adv-x="585" d="M236 -391v1757h114v-1757h-114z" />
<glyph unicode="}" horiz-adv-x="751" d="M78 -287q121 0 172 51q61 59 61 244v369q0 76 49 125l115 108q20 18 2 37q-10 10 -39.5 37t-46 43t-37 43t-31 53.5t-10.5 55.5v413q0 182 -59 242q-55 53 -176 53v105q174 0 250 -76q59 -57 78.5 -128t19.5 -198v-428q0 -4 2 -6l111 -111q63 -57 63 -116 q0 -41 -27.5 -79t-59.5 -60.5t-59.5 -50t-27.5 -50.5v-379q0 -125 -20.5 -196.5t-77.5 -128.5q-78 -76 -252 -76v104z" />
<glyph unicode="~" d="M72 449l166 118q72 49 158.5 53.5t156.5 -45.5q2 -2 27.5 -20t29.5 -21.5t28 -18.5t32 -17t29.5 -12.5t31.5 -10.5t30.5 -3t35 2t32 12.5t35.5 19.5l162 110l61 -96l-163 -119q-68 -51 -158 -53t-160 47q-111 80 -155 97q-80 25 -156 -27l-160 -113z" />
<glyph unicode="&#xa0;" horiz-adv-x="1159" d="M215 877v106h305v383h117v-383h305v-106h-305v-1063h-117v1063h-305z" />
<glyph unicode="&#xa1;" horiz-adv-x="1163" d="M274 1073q0 162 74 234.5t233.5 72.5t232.5 -71.5t73 -235.5t-73 -239.5t-232 -75.5q-158 0 -233 75.5t-75 239.5zM387 1069q0 -117 40 -161t154.5 -44t153.5 44t39 161t-39 162t-153.5 45t-154.5 -45t-40 -162z" />
<glyph unicode="&#xa2;" horiz-adv-x="1069" d="M129 494q0 162 20.5 252t73.5 145q92 94 277 106v181h110v-181q344 -18 344 -292h-110q0 170 -234 182v-791q233 12 234 183h110q0 -274 -344 -293v-181h-110v181q-184 12 -277 106q-53 55 -73.5 146.5t-20.5 255.5zM248 494q0 -205 45 -294t207 -104v791 q-70 -6 -116 -26.5t-73.5 -49.5t-41 -82t-17.5 -103t-4 -132z" />
<glyph unicode="&#xa3;" d="M123 0v111h115v518h-115v108h115v201v38v42q0 6 1 37.5t3 43t6 38t10 41t14.5 35t20.5 36t26 29.5q106 102 326 102q68 0 115 -4t106.5 -21.5t94 -48t60.5 -91t26 -144.5h-115q0 123 -65.5 161t-200.5 38q-195 0 -263 -76q-12 -12 -20 -28.5t-13 -36t-8.5 -34t-4.5 -40 t-1 -36.5v-39v-36v-207h598v-108h-598v-518h709v-111h-942z" />
<glyph unicode="&#xa4;" horiz-adv-x="1159" d="M184 94h115q0 -113 61.5 -154.5t231.5 -39.5q131 0 196.5 36.5t65.5 163.5q0 57 -16.5 95t-35 56.5t-64.5 28t-73.5 10.5t-93.5 1q-119 0 -186.5 12t-118.5 57q-82 70 -82 224q0 180 123 233q-123 57 -123 248q0 182 97.5 247.5t283.5 67.5q215 2 310.5 -65.5 t97.5 -243.5h-115q0 115 -61.5 158t-231.5 41q-131 0 -196.5 -39t-65.5 -166q0 -57 16.5 -95t35 -56.5t64.5 -27.5t73.5 -10.5t93.5 -1.5q119 0 186.5 -12t118.5 -57q82 -70 82 -223q0 -180 -123 -234q123 -57 123 -248q0 -182 -97.5 -247.5t-283.5 -67.5 q-215 -2 -311.5 66.5t-96.5 242.5zM303 584q0 -53 15.5 -89t37 -55.5t63.5 -29t73.5 -11.5t89.5 -2q55 0 86.5 2t71.5 11.5t61.5 29t37 55t15.5 87.5q0 53 -15.5 89t-37 55t-63.5 28.5t-73.5 11.5t-89.5 2q-70 0 -108.5 -4t-81.5 -20.5t-62.5 -56.5t-19.5 -103z" />
<glyph unicode="&#xa5;" horiz-adv-x="1032" d="M324 684q0 100 46 146.5t146 46.5t145.5 -46.5t45.5 -146.5t-45.5 -145t-145.5 -45t-146 45t-46 145z" />
<glyph unicode="&#xa6;" horiz-adv-x="1155" d="M88 991q0 319 248 365q59 10 254 10h336v-1366h-115v1255h-115v-1255h-114v621h-54h-57q-12 0 -52 2t-56.5 5t-49 10t-53 17.5t-45.5 25.5t-45 36q-82 79 -82 274zM205 997q0 -55 8 -97t19.5 -70.5t40 -47t49 -29t67.5 -14.5t77 -5t95 -1h21v522h-35q-80 0 -119 -2 t-91 -15t-74.5 -40t-40 -76t-17.5 -125z" />
<glyph unicode="&#xa7;" horiz-adv-x="1159" d="M164 0v995q0 172 18 234q61 213 396 213q221 0 319 -82t98 -279q0 -248 -153 -321q92 -37 129 -123t37 -236q0 -233 -113 -317t-322 -84h-155v104h160q170 0 239.5 60.5t71.5 228.5q2 186 -71 250t-257 64h-143v106h143q174 0 256 61q59 47 60 201q0 147 -61.5 199.5 t-237.5 52.5q-104 0 -166 -18.5t-89.5 -67.5t-33.5 -96t-6 -144v-1001h-119z" />
<glyph unicode="&#xa8;" horiz-adv-x="1097" d="M86 919.5q0 276.5 94 370.5q92 90 368.5 90t366.5 -90q51 -49 73 -134t22 -238q0 -152 -21.5 -236t-73.5 -133q-96 -96 -366 -96t-369 96q-94 94 -94 370.5zM168 915q0 -242 70 -311q78 -74 311 -74q236 0 309 74q72 70 72 318q0 139 -16.5 206.5t-55.5 104.5 q-68 72 -309 72q-240 0 -311 -72q-70 -70 -70 -318zM346 631v583h199q72 0 104 -6q113 -20 113 -157q0 -78 -60 -121q59 -39 60 -129v-170h-80v166q0 51 -14.5 71.5t-59.5 22.5q-18 2 -69 2h-111v-262h-82zM426 963h119q90 0 106 8q31 14 31 82q0 57 -16 71q-12 12 -33 15.5 t-94 3.5h-113v-180z" />
<glyph unicode="&#xa9;" horiz-adv-x="1699" d="M162 688q0 229 34.5 354t112.5 203q80 76 206 105.5t333 29.5q209 0 335 -29.5t203 -105.5q80 -76 115 -203t35 -358q0 -229 -35 -354t-114.5 -203t-206.5 -110.5t-332 -32.5q-203 0 -330 32.5t-209 110.5q-78 78 -112.5 204t-34.5 357zM272 682q0 -211 26 -314.5 t87 -162.5q125 -119 463 -119q340 0 463 119q61 59 87.5 165.5t26.5 319.5q0 211 -26.5 314.5t-87.5 162.5q-115 111 -463 111q-346 0 -463 -111q-59 -59 -86 -165.5t-27 -319.5zM422 684q0 162 19.5 242t72.5 137q100 106 338 106q72 0 128 -8t114.5 -28.5t97.5 -65.5 t53 -113q8 -33 8 -96h-108q0 104 -39 139q-70 70 -252 70q-184 0 -258 -78q-35 -37 -48 -98.5t-13 -206.5q0 -147 13 -208.5t48 -98.5q74 -78 258 -78q180 0 252 72q39 35 39 139h108q0 -68 -8 -96q-45 -217 -393 -217q-240 0 -338 104q-53 57 -72.5 138t-19.5 245z" />
<glyph unicode="&#xaa;" horiz-adv-x="1746" d="M45 1276v90h639v-90h-268v-801h-103v801h-268zM768 475v891h129l295 -764l299 764h125v-891h-96v709l-275 -709h-108l-271 707v-707h-98z" />
<glyph unicode="&#xab;" horiz-adv-x="860" d="M229 1108l265 258h137l-264 -258h-138z" />
<glyph unicode="&#xac;" horiz-adv-x="860" d="M127 1288q0 82 82 82t82 -82t-82 -82t-82 82zM567 1288q0 82 82 82t82 -82t-82 -82t-82 82z" />
<glyph unicode="&#xad;" d="M92 96l154 146h-154v108h264l297 287h-561v108h674l225 218l76 -76l-149 -142h149v-108h-260l-297 -287h557v-108h-670l-229 -222z" />
<glyph unicode="&#xae;" horiz-adv-x="1861" d="M8 0l912 1366h784v-111h-651v-499h630v-109h-630v-536h651v-111h-770v414h-514l-277 -414h-135zM487 520h447v674z" />
<glyph unicode="&#xaf;" horiz-adv-x="1372" d="M164 517q-2 81 0 171q2 303 31 410q51 193 231 250q104 35 264 32q37 0 94 -4l62 271l106 -23l-59 -264q66 -14 116 -39t83.5 -58.5t57.5 -77.5t35 -96.5t17 -116t6 -135.5v-155q-2 -305 -30 -412q-51 -195 -236 -254q-102 -35 -260 -32q-39 0 -96 4l-64 -277l-106 21 l63 272q-80 16 -136 49t-90 79t-54.5 105.5t-26.5 129t-8 150.5zM285 686q-2 -240 11 -328t50 -143q53 -76 158 -98l256 1147q-23 2 -70 2q-254 2 -338 -115q-39 -53 -52 -139t-15 -326zM610 100q23 -2 72 -2q252 -2 336 115q39 53 53 141t16 326q2 240 -11 327t-50 142 q-53 76 -160 98z" />
<glyph unicode="&#xb0;" horiz-adv-x="1490" d="M72 662l671 673l676 -673l-78 -78l-538 546v-1130h-111v1130l-540 -546z" />
<glyph unicode="&#xb1;" d="M68 0v109h1024v-109h-1024zM88 600v109h432v383h115v-383h434v-109h-434v-385h-115v385h-432z" />
<glyph unicode="&#xb2;" d="M68 0v109h1024v-109h-1024zM88 600v111l956 381l43 -107l-860 -328l860 -335l-43 -107z" />
<glyph unicode="&#xb3;" d="M68 0v109h1024v-109h-1024zM72 322l860 335l-860 328l43 107l956 -381v-111l-956 -385z" />
<glyph unicode="&#xb4;" horiz-adv-x="1101" d="M33 1366h137l385 -651l379 651h133l-307 -516h172v-107h-236l-67 -114h303v-107h-322v-522h-118v522h-322v107h305l-69 114h-236v107h172z" />
<glyph unicode="&#xb5;" horiz-adv-x="1120" d="M162 -391v1374h121v-518v-37q0 -63 1 -93t5 -74t13 -62.5t26.5 -43t45 -33.5t66.5 -16.5t92 -7.5q66 0 115 13.5t81 31t54.5 56.5t32.5 65.5t15.5 84t6.5 87t1 99.5v448h120v-983h-114v115q-98 -131 -318 -131q-162 0 -243 77v-452h-121z" />
<glyph unicode="&#xb6;" horiz-adv-x="1308" d="M53 877v106h166v168q0 291 340 291q322 0 328 -223h-117q-6 63 -58.5 86.5t-148.5 23.5q-117 0 -171 -37t-54 -141v-168h389v-106h-389v-877h-119v877h-166zM311 -143h115q0 -10 1 -21.5t13.5 -36t33 -43t63.5 -33t102 -14.5q121 0 186 66q10 10 16.5 20t10.5 24.5t7 25 t4 28.5t1 27v28v25v1030h119v-1077q0 -139 -74 -213q-90 -90 -270 -90q-150 0 -237 62.5t-91 191.5z" />
<glyph unicode="&#xb7;" horiz-adv-x="911" />
<glyph unicode="&#xb8;" horiz-adv-x="1484" d="M250 463l803 801l-770 -4v106h948v-952h-107l4 772l-800 -801z" />
<glyph unicode="&#xb9;" horiz-adv-x="1484" d="M250 414v952h948v-106l-770 4l803 -801l-78 -78l-801 801l4 -772h-106z" />
<glyph unicode="&#xba;" horiz-adv-x="1484" d="M250 903l78 78l800 -801l-4 772h107v-952h-948v106l770 -4z" />
<glyph unicode="&#xbb;" horiz-adv-x="786" d="M80 883q0 131 74.5 175t214.5 44h231v4q0 113 -35 145q-37 37 -168 37q-201 0 -200 -110h-97q0 203 310 202q256 0 284 -170q4 -20 4 -129v-393h-84v84q-49 -47 -104 -70.5t-152 -23.5q-143 0 -210.5 47t-67.5 158zM178 885q0 -66 37 -91.5t139 -25.5q174 0 219 98 q23 43 25 95v51h-236q-92 0 -138 -24.5t-46 -102.5z" />
<glyph unicode="&#xbc;" horiz-adv-x="786" d="M76 1030.5q0 112.5 14 174t53 100.5q76 76 250 75.5t248 -75.5q41 -39 55.5 -100.5t14.5 -174t-14.5 -174t-55.5 -100.5q-74 -76 -248 -76t-250 76q-39 39 -53 100.5t-14 174zM174 1030.5q0 -151.5 37 -205t182 -53.5q143 0 181 54.5t38 203.5q0 166 -45 211 q-43 47 -174 47q-145 0 -182 -53t-37 -204.5z" />
<glyph unicode="&#xbd;" horiz-adv-x="1484" d="M250 0v952h106l-4 -772l801 801l78 -78l-803 -801l770 4v-106h-948z" />
<glyph unicode="&#xbe;" horiz-adv-x="1802" d="M106 276q0 98 30 162t88.5 94.5t122 42t155.5 11.5h334v32v30v34q0 10 -1 31.5t-4.5 34t-8.5 29t-13 29.5t-21 23q-57 57 -243 58q-53 0 -86 -2t-79 -11.5t-71.5 -28t-45 -54t-19.5 -86.5h-111q0 164 109.5 229t318.5 65q272 0 350 -143q92 143 342 143q131 0 215 -27.5 t128 -91t59.5 -141t15.5 -200.5v-64h-719q0 -104 10.5 -165.5t41 -116t93 -77t165.5 -22.5q57 0 101 6t89 23.5t69.5 56.5t24.5 99h111q0 -125 -64 -189q-29 -31 -57.5 -49t-103 -37.5t-179.5 -19.5q-295 0 -362 180q-96 -180 -399 -180q-197 0 -291.5 68t-94.5 224z M227 279q0 -102 58.5 -145.5t199.5 -43.5q96 0 161 16.5t102.5 44t57 80t25 106.5t5.5 142h-342q-139 0 -203 -38.5t-64 -161.5zM954 584h602q0 178 -62 240.5t-241 62.5q-170 0 -234.5 -67.5t-64.5 -235.5z" />
<glyph unicode="&#xbf;" horiz-adv-x="1130" d="M131 496q2 166 22.5 255t73.5 142q109 109 344 106q55 0 113 -8l66 185l104 -37l-61 -174q72 -29 116 -76q53 -55 72.5 -146.5t17.5 -255.5q-2 -166 -22.5 -255t-73.5 -142q-109 -109 -342 -106q-47 0 -117 8l-67 -191l-107 37l66 180q-68 27 -115 76q-53 55 -72.5 146.5 t-17.5 255.5zM250 496q-2 -164 20.5 -247t108.5 -118l266 754q-45 4 -76 4q-90 0 -150.5 -17.5t-93 -44t-50 -84t-21.5 -106.5t-4 -141zM485 102q45 -4 78 -4q90 0 150.5 18.5t93.5 45t50 85t21.5 107.5t4.5 140q2 160 -20.5 244.5t-108.5 119.5z" />
<glyph unicode="&#xc0;" horiz-adv-x="870" d="M61 -51q0 129 55.5 204.5t172.5 127.5q90 39 109.5 78.5t19.5 148.5v86h119v-119q0 -113 -37 -176t-90.5 -87t-105.5 -45.5t-89 -72.5t-37 -145q0 -133 56.5 -184.5t204 -51.5t207 44t59.5 155h114q0 -168 -93 -238.5t-282 -70.5q-197 0 -290 80t-93 266zM393 917.5 q0 81.5 82 81.5q84 0 84 -81.5t-82 -81.5q-84 0 -84 81.5z" />
<glyph unicode="&#xc1;" horiz-adv-x="583" d="M209 917.5q0 81.5 82 81.5t82 -81.5t-82 -81.5t-82 81.5zM233 -383v977h117v-977h-117z" />
<glyph unicode="&#xc2;" d="M92 637v108h975v-745h-115v637h-860z" />
<glyph unicode="&#xc3;" horiz-adv-x="1484" d="M70 674l77 78l541 -547v1130h111v-1130l538 547l78 -78l-674 -674z" />
<glyph unicode="&#xc4;" d="M141 629v108h115v201v38v42q0 6 1 37.5t3 43t6 38t10.5 41t14.5 35t20.5 36t26.5 29.5q106 102 326 102q68 0 114.5 -4t106 -21.5t94.5 -48t60.5 -91t25.5 -144.5h-115q0 123 -65.5 161t-200.5 38q-195 0 -262 -76q-12 -12 -20.5 -28.5t-13.5 -36t-8 -34t-4 -40t-1 -36.5 v-39v-36v-207h598v-108h-598v-1020h-119v1020h-115z" />
<glyph unicode="&#xc5;" d="M72 258l166 119q72 49 158.5 53t156.5 -45q2 -2 27.5 -20.5t29.5 -21.5t28 -18.5t32 -17.5t29.5 -12t31.5 -10t30.5 -3t35 2t32 12t35.5 19l162 111l61 -96l-163 -119q-68 -51 -158 -53t-160 47q-111 80 -155 96q-80 25 -156 -27l-160 -112zM72 655l166 119 q72 49 158.5 53t156.5 -45q2 -2 27.5 -20.5t29.5 -21.5t28 -18t32 -17.5t29.5 -12.5t31.5 -10t30.5 -3t35 2t32 12t35.5 20l162 110l61 -96l-163 -119q-68 -51 -158 -53t-160 47q-111 80 -155 96q-80 25 -156 -26l-160 -113z" />
<glyph unicode="&#xc6;" horiz-adv-x="1484" d="M74 670l674 673l77 -77l-546 -539h1130v-111h-1130l546 -540l-77 -78z" />
<glyph unicode="&#xc7;" horiz-adv-x="925" d="M100 485q0 39 15.5 81t31 73t53.5 78t54 65.5t63.5 67.5t53.5 55l75 -78q-6 -8 -42.5 -43.5t-54 -54t-48.5 -55.5t-47 -63.5t-29.5 -60.5t-13.5 -62.5t13.5 -62.5t26.5 -58.5t46 -62.5t47 -53t54 -54t44 -43l-75 -76q-2 2 -46.5 45t-55.5 55t-47 52t-48 62.5t-33.5 58.5 t-29 68.5t-7.5 65.5zM487 485q0 39 15.5 81t31 73t53.5 78t54 65.5t63.5 67.5t53.5 55l76 -78q-6 -8 -43 -43.5t-54.5 -54t-48.5 -55.5t-47 -63.5t-29.5 -60.5t-13.5 -62.5t13.5 -62.5t26.5 -58.5t46 -62.5t47 -53t54 -54t44 -43l-75 -76q-2 2 -46 45t-55.5 55t-47.5 52 t-48 62.5t-33.5 58.5t-29 68.5t-7.5 65.5z" />
<glyph unicode="&#xc8;" horiz-adv-x="925" d="M90 827l76 78q6 -6 53 -55t63.5 -67.5t54.5 -65.5t53.5 -78t30.5 -73t15 -81q0 -33 -7 -65.5t-28.5 -68.5t-34 -58.5t-48 -62.5t-47 -52t-55.5 -55t-46 -45l-76 76q4 4 44 43t54.5 54t47 53t46 62.5t27 58.5t13.5 62.5t-13.5 62.5t-30 60.5t-47 63.5t-48 55.5t-54.5 54 t-43 43.5zM477 827l76 78q6 -6 53 -55t63.5 -67.5t54.5 -65.5t53.5 -78t30.5 -73t15 -81q0 -33 -7 -65.5t-28.5 -68.5t-34 -58.5t-48 -62.5t-47 -52t-55.5 -55t-46 -45l-76 76q4 4 44 43t54.5 54t47 53t46 62.5t27 58.5t13.5 62.5t-13.5 62.5t-30 60.5t-47 63.5t-48 55.5 t-54.5 54t-43 43.5z" />
<glyph unicode="&#xc9;" horiz-adv-x="2060" d="M264 65.5q0 81.5 82 81.5t82 -81h2q0 -82 -82 -82q-84 0 -84 81.5zM946 65.5q0 81.5 82 81.5t82 -81h2q0 -82 -82 -82q-84 0 -84 81.5zM1630 65.5q0 81.5 82 81.5q84 0 84 -81.5t-82 -81.5q-84 0 -84 81.5z" />
<glyph unicode="&#xca;" horiz-adv-x="585" />
<glyph unicode="&#xcb;" horiz-adv-x="1259" d="M43 0l528 1366h115l528 -1366h-131l-153 403h-608l-152 -403h-127zM362 510h527l-262 704zM391 1765h137l267 -258h-138z" />
<glyph unicode="&#xcc;" horiz-adv-x="1259" d="M43 0l528 1366h115l528 -1366h-131l-153 403h-608l-152 -403h-127zM362 510h527l-262 704zM252 1669q10 6 47 26.5t51.5 27.5t47 21.5t54 17.5t51.5 5t57.5 -6t56.5 -25q4 -2 29.5 -17t34 -19.5t31 -13.5t35.5 -9t33.5 3t39.5 13l133 72l49 -92l-127 -68 q-125 -68 -238 -2q-10 6 -36.5 22.5t-40 22.5t-35 13.5t-43 3.5t-45.5 -17l-136 -71z" />
<glyph unicode="&#xcd;" horiz-adv-x="1372" d="M162 680v4q0 305 28 414q51 190 236 250q102 33 258 32q154 0 256 -35.5t155.5 -81.5t79 -151.5t29.5 -180.5t4 -235v-10q0 -305 -26 -414q-49 -195 -234 -254q-104 -35 -262 -34q-154 0 -256 36.5t-155.5 84t-79 155t-29.5 183t-4 237.5zM283 682q0 -238 13 -326 t52 -143q80 -115 338 -115q256 0 336 117q39 55 52 142t13 327t-13 326t-52 141q-78 115 -338 115q-254 0 -336 -117q-39 -55 -52 -142t-13 -325zM309 1669q10 6 47 26.5t51.5 27.5t47 21.5t54 17.5t51.5 5t57.5 -6t56.5 -25q4 -2 29.5 -17t34 -19.5t31 -13.5t35.5 -9 t33.5 3t39.5 13l133 72l49 -92l-127 -68q-125 -68 -238 -2q-10 6 -36.5 22.5t-40 22.5t-35 13.5t-43 3.5t-45.5 -17l-136 -71z" />
<glyph unicode="&#xce;" horiz-adv-x="1886" d="M162 684q0 221 16.5 328.5t63.5 181.5q61 96 163.5 134t292.5 38h1031v-111h-668v-499h647v-109h-647v-536h668v-111h-1031q-190 0 -292.5 37t-163.5 135q-47 74 -63.5 181.5t-16.5 330.5zM283 684q0 -213 14 -309t53 -154q41 -59 119 -84.5t240 -25.5h233v1144h-233 q-162 0 -240 -25.5t-119 -84.5q-37 -55 -52 -152.5t-15 -308.5z" />
<glyph unicode="&#xcf;" horiz-adv-x="1849" d="M129 491.5q0 161.5 20.5 253t73.5 146.5q109 109 346 108q301 0 369 -186q72 186 362 186q117 0 196 -26.5t123 -65.5t66.5 -115.5t27.5 -144t5 -184.5h-719q0 -205 57.5 -287t252.5 -82q57 0 101 6t89 23.5t69.5 56.5t24.5 99h111q0 -125 -64 -189q-29 -31 -57.5 -49 t-103 -37.5t-179.5 -19.5q-293 0 -362 184q-68 -184 -373 -184q-233 0 -342 108q-53 55 -73.5 146.5t-20.5 253zM248 496q0 -115 7 -173.5t37 -118t96.5 -83t176.5 -23.5q66 0 114 9.5t82 24.5t56.5 45t34.5 56.5t19.5 74.5t8.5 85t1 103q0 115 -8.5 175t-38 116.5t-95 78 t-174.5 21.5q-90 0 -150.5 -18.5t-93 -45t-49 -83t-20.5 -105.5t-4 -139zM1001 571h603q0 180 -63.5 248t-240.5 68q-168 0 -233.5 -73t-65.5 -243z" />
<glyph unicode="&#xd0;" d="M68 438v109h1024v-109h-1024z" />
<glyph unicode="&#xd1;" horiz-adv-x="2058" d="M209 438v109h1638v-109h-1638z" />
<glyph unicode="&#xd2;" horiz-adv-x="768" d="M162 932v166q0 88 17.5 137t72.5 96l61 53l70 -69q-49 -45 -62.5 -57.5t-31 -39t-18.5 -49t-1 -71.5v-166h-108zM494 932v166q0 88 17 137t73 96l61 53l70 -69q-49 -45 -62.5 -57.5t-31 -39t-18.5 -49t-1 -71.5v-166h-108z" />
<glyph unicode="&#xd3;" horiz-adv-x="768" d="M51 983q49 45 62.5 57.5t31 39t18.5 49t1 71.5v166h108v-166q0 -88 -17 -137t-73 -96l-61 -54zM383 983q49 45 62.5 57.5t31 39t18.5 49t1 71.5v166h108v-166q0 -88 -17.5 -137t-72.5 -96l-61 -54z" />
<glyph unicode="&#xd4;" horiz-adv-x="436" d="M162 932v166q0 88 17.5 137t72.5 96l61 53l70 -69q-49 -45 -62.5 -57.5t-31 -39t-18.5 -49t-1 -71.5v-166h-108z" />
<glyph unicode="&#xd5;" horiz-adv-x="436" d="M51 983q49 45 62.5 57.5t31 39t18.5 49t1 71.5v166h108v-166q0 -88 -17 -137t-73 -96l-61 -54z" />
<glyph unicode="&#xd6;" d="M92 438v109h975v-109h-975zM498 65.5q0 81.5 82 81.5t82 -81.5t-82 -81.5t-82 81.5zM498 917.5q0 81.5 82 81.5t82 -81.5t-82 -81.5t-82 81.5z" />
<glyph unicode="&#xd7;" horiz-adv-x="1484" d="M74 616v111h1130l-547 539l78 77l674 -673l-674 -672l-78 78l547 540h-1130z" />
<glyph unicode="&#xd8;" horiz-adv-x="880" d="M10 983h125l299 -825l297 825h125l-516 -1372h-123l154 403zM137 1288q0 82 82 82t82 -82t-82 -82t-82 82zM578 1288q0 82 81.5 82t81.5 -82t-81.5 -82t-81.5 82z" />
<glyph unicode="&#xd9;" horiz-adv-x="1087" d="M10 1366h137l400 -649l397 649h133l-473 -766v-600h-121v600zM244 1687.5q0 81.5 82 81.5t82 -81.5t-82 -81.5t-82 81.5zM684 1687.5q0 81.5 82 81.5t82 -81.5t-82 -81.5t-82 81.5z" />
<glyph unicode="&#xda;" horiz-adv-x="598" d="M-98 0l688 1366h108l-690 -1366h-106z" />
<glyph unicode="&#xdb;" d="M111 518v109h106v114h-106v109h106q2 248 49 344q94 186 381 186q188 0 291.5 -67.5t103.5 -241.5h-116q0 119 -71 159t-208 40q-129 0 -193.5 -38t-91.5 -122q-25 -80 -26 -260h373v-109h-373v-114h373v-109h-373q2 -213 37 -295q31 -66 92 -95.5t180 -29.5 q141 0 211 39t70 158h116q0 -174 -100 -242.5t-295 -68.5q-317 0 -399 231q-29 88 -31 303h-106z" />
<glyph unicode="&#xdc;" horiz-adv-x="538" d="M100 485q0 39 15.5 81t31 73t53.5 78t54 65.5t63.5 67.5t53.5 55l75 -78q-6 -8 -42.5 -43.5t-54 -54t-48.5 -55.5t-47 -63.5t-29.5 -60.5t-13.5 -63q0 -35 13.5 -70.5t47 -77.5t52 -63.5t65.5 -68.5l53 -53l-75 -76l-54 53q-49 49 -64.5 65.5t-53 62.5t-52 74.5t-29 70.5 t-14.5 81z" />
<glyph unicode="&#xdd;" horiz-adv-x="538" d="M90 827l76 78q4 -4 46 -47t54.5 -57.5t48 -54t50 -64.5t35 -61.5t28.5 -69.5t8 -65.5t-7 -65.5t-28.5 -69t-34 -58.5t-48 -62.5t-47 -52t-55.5 -55t-46 -45l-76 76q4 4 44 43t54.5 54t47 53t46 62.5t27 58.5t13.5 62q0 25 -8.5 51.5t-27 56.5t-31.5 51.5t-44 53t-43 45 t-45 46.5z" />
<glyph unicode="&#xde;" horiz-adv-x="1140" d="M53 877v106h166v168q0 291 340 291q322 0 328 -223h-117q-6 63 -58.5 86.5t-148.5 23.5q-117 0 -171 -37t-54 -141v-168h389v-106h-389v-877h-119v877h-166zM864 0v983h119v-983h-119z" />
<glyph unicode="&#xdf;" horiz-adv-x="1302" d="M53 877v106h166v168q0 291 340 291q322 0 328 -223h-117q-6 63 -58.5 86.5t-148.5 23.5q-117 0 -171 -37t-54 -141v-168h389v-106h-389v-877h-119v877h-166zM1022 0v1427h119v-1427h-119z" />
<glyph unicode="&#xe0;" horiz-adv-x="1159" d="M215 410v106h305v361h-305v106h305v383h117v-383h305v-106h-305v-361h305v-106h-305v-596h-117v596h-305z" />
<glyph unicode="&#xe1;" horiz-adv-x="436" d="M135 686q0 82 82 82t82 -82t-82 -82t-82 82z" />
<glyph unicode="&#xe2;" horiz-adv-x="436" d="M51 -240q49 45 62.5 57.5t31 39t18.5 49t1 71.5v166h108v-166q0 -88 -17 -137t-73 -96l-61 -53z" />
<glyph unicode="&#xe3;" horiz-adv-x="768" d="M51 -240q49 45 62.5 57.5t31 39t18.5 49t1 71.5v166h108v-166q0 -88 -17 -137t-73 -96l-61 -53zM383 -240q49 45 62.5 57.5t31 39t18.5 49t1 71.5v166h108v-166q0 -88 -17.5 -137t-72.5 -96l-61 -53z" />
<glyph unicode="&#xe4;" horiz-adv-x="2447" d="M168 848v80v41v35q0 66 1 97.5t8 84.5t23.5 80.5t45 58.5t77 43t113.5 12q57 0 100.5 -10t72 -29.5t48 -46t28.5 -58.5t14.5 -69t5.5 -75v-80v-43q0 -197 -15 -254q-37 -143 -205 -158q-23 -2 -49 -2q-57 0 -100 11.5t-71.5 30.5t-48 46t-29 59.5t-14.5 69.5t-5 76z M272 969q0 -209 21 -256q29 -63 143 -64q127 0 152 80q14 45 14 240q0 213 -20 254q-29 61 -146 61q-125 0 -149 -78q-15 -44 -15 -237zM496 0l688 1366h108l-690 -1366h-106zM1067 276v80v41v35q0 66 1 97.5t8 85t23.5 81t45.5 58t77 43t113 12.5q57 0 100.5 -10.5 t72 -29.5t48 -46t28.5 -58.5t14.5 -68.5t5.5 -76v-80v-43q0 -197 -15 -254q-37 -143 -205 -157q-23 -2 -49 -2q-57 0 -100 11t-71.5 30.5t-48 46t-29 59.5t-14.5 69.5t-5 75.5zM1171 397q0 -209 21 -256q29 -63 143 -63q127 0 152 80q14 45 14 239q0 213 -20 254 q-29 61 -146 62q-125 0 -149 -78q-15 -45 -15 -238zM1743 276v80v41v35q0 66 1 97.5t8 85t23.5 81t45 58t77 43t113.5 12.5q57 0 100 -10.5t72 -29.5t48.5 -46t28.5 -58.5t14 -68.5t5 -76v-80v-43q0 -197 -14 -254q-37 -143 -205 -157q-23 -2 -49 -2q-57 0 -100 11t-72 30.5 t-48 46t-28.5 59.5t-14.5 69.5t-5 75.5zM1847 397q0 -209 21 -256q29 -63 143 -63q127 0 152 80q14 45 14 239q0 213 -20 254q-29 61 -146 62q-125 0 -149 -78q-15 -45 -15 -238z" />
<glyph unicode="&#xe5;" horiz-adv-x="1259" d="M43 0l528 1366h115l528 -1366h-131l-153 403h-608l-152 -403h-127zM362 510h527l-262 704zM312 1507l272 258h86l275 -258h-138l-178 170l-178 -170h-139z" />
<glyph unicode="&#xe6;" horiz-adv-x="1200" d="M188 0v1366h854v-111h-735v-499h715v-109h-715v-536h735v-111h-854zM318 1507l272 258h86l275 -258h-138l-178 170l-178 -170h-139z" />
<glyph unicode="&#xe7;" horiz-adv-x="1259" d="M43 0l528 1366h115l528 -1366h-131l-153 403h-608l-152 -403h-127zM362 510h527l-262 704zM462 1507l265 258h137l-264 -258h-138z" />
<glyph unicode="&#xe8;" horiz-adv-x="1200" d="M188 0v1366h854v-111h-735v-499h715v-109h-715v-536h735v-111h-854zM303 1685q0 82 82 82t82 -82t-82 -82t-82 82zM743 1685q0 82 82 82t82 -82t-82 -82t-82 82z" />
<glyph unicode="&#xe9;" horiz-adv-x="1200" d="M188 0v1366h854v-111h-735v-499h715v-109h-715v-536h735v-111h-854zM373 1765h137l267 -258h-138z" />
<glyph unicode="&#xea;" horiz-adv-x="561" d="M98 1507l264 258h138l-264 -258h-138zM225 0v1366h121v-1366h-121z" />
<glyph unicode="&#xeb;" horiz-adv-x="561" d="M-31 1507l273 258h86l272 -258h-137l-178 170l-179 -170h-137zM225 0v1366h121v-1366h-121z" />
<glyph unicode="&#xec;" horiz-adv-x="561" d="M-16 1687.5q0 81.5 81.5 81.5t81.5 -81.5t-81.5 -81.5t-81.5 81.5zM225 0v1366h121v-1366h-121zM424 1687.5q0 81.5 82 81.5t82 -81.5t-82 -81.5t-82 81.5z" />
<glyph unicode="&#xed;" horiz-adv-x="561" d="M74 1765h137l264 -258h-137zM225 0v1366h121v-1366h-121z" />
<glyph unicode="&#xee;" horiz-adv-x="1372" d="M162 680v4q0 305 28 414q51 190 236 250q102 33 258 32q154 0 256 -35.5t155.5 -81.5t79 -151.5t29.5 -180.5t4 -235v-10q0 -305 -26 -414q-49 -195 -234 -254q-104 -35 -262 -34q-154 0 -256 36.5t-155.5 84t-79 155t-29.5 183t-4 237.5zM283 682q0 -238 13 -326 t52 -143q80 -115 338 -115q256 0 336 117q39 55 52 142t13 327t-13 326t-52 141q-78 115 -338 115q-254 0 -336 -117q-39 -55 -52 -142t-13 -325zM475 1507l265 258h137l-264 -258h-138z" />
<glyph unicode="&#xef;" horiz-adv-x="1372" d="M162 680v4q0 305 28 414q51 190 236 250q102 33 258 32q154 0 256 -35.5t155.5 -81.5t79 -151.5t29.5 -180.5t4 -235v-10q0 -305 -26 -414q-49 -195 -234 -254q-104 -35 -262 -34q-154 0 -256 36.5t-155.5 84t-79 155t-29.5 183t-4 237.5zM283 682q0 -238 13 -326 t52 -143q80 -115 338 -115q256 0 336 117q39 55 52 142t13 327t-13 326t-52 141q-78 115 -338 115q-254 0 -336 -117q-39 -55 -52 -142t-13 -325zM367 1507l272 258h86l275 -258h-138l-178 170l-178 -170h-139z" />
<glyph unicode="&#xf0;" horiz-adv-x="1703" d="M162 688.5q0 231.5 32.5 355t112.5 199.5t207 106.5t334 30.5q209 0 335 -30.5t206 -106.5q82 -76 116.5 -203t34.5 -356q0 -227 -36 -352t-115.5 -203t-207.5 -110.5t-333 -32.5q-203 0 -331 32.5t-210 110.5q-80 76 -112.5 202t-32.5 357.5zM279 682 q0 -211 24.5 -314.5t83.5 -160.5q57 -53 176 -84v520h-127v102h127v105q0 291 322 291q330 0 332 -273h-115q-2 88 -52.5 126t-160.5 38q-106 0 -157.5 -41t-51.5 -141v-105h444v-102h-444v-541q80 -8 168 -8q344 0 461 113q61 57 87.5 164.5t26.5 318.5t-26.5 314.5 t-87.5 160.5q-109 106 -461 107q-348 0 -461 -107q-66 -63 -87 -157.5t-21 -325.5z" />
<glyph unicode="&#xf1;" horiz-adv-x="1372" d="M162 680v4q0 305 28 414q51 190 236 250q102 33 258 32q154 0 256 -35.5t155.5 -81.5t79 -151.5t29.5 -180.5t4 -235v-10q0 -305 -26 -414q-49 -195 -234 -254q-104 -35 -262 -34q-154 0 -256 36.5t-155.5 84t-79 155t-29.5 183t-4 237.5zM283 682q0 -238 13 -326 t52 -143q80 -115 338 -115q256 0 336 117q39 55 52 142t13 327t-13 326t-52 141q-78 115 -338 115q-254 0 -336 -117q-39 -55 -52 -142t-13 -325zM489 1765h137l267 -258h-138z" />
<glyph unicode="&#xf2;" horiz-adv-x="1337" d="M180 688v678h121v-678v-104v-98q0 -30 1 -78t5 -73.5t11.5 -54t19.5 -49.5q76 -133 330 -133q258 0 329 133q14 25 22.5 54.5t11.5 82t4 83.5q1 15 1 43.5t-1 70.5q-1 84 -1 123v678h121v-678q0 -244 -4 -311q-2 -96 -29 -160q-88 -233 -454 -233q-365 0 -455 233 q-23 63 -29 160q-4 135 -4 311zM516 1507l265 258h137l-264 -258h-138z" />
<glyph unicode="&#xf3;" horiz-adv-x="1337" d="M180 688v678h121v-678v-104v-98q0 -30 1 -78t5 -73.5t11.5 -54t19.5 -49.5q76 -133 330 -133q258 0 329 133q14 25 22.5 54.5t11.5 82t4 83.5q1 15 1 43.5t-1 70.5q-1 84 -1 123v678h121v-678q0 -244 -4 -311q-2 -96 -29 -160q-88 -233 -454 -233q-365 0 -455 233 q-23 63 -29 160q-4 135 -4 311zM367 1507l272 258h86l275 -258h-138l-178 170l-178 -170h-139z" />
<glyph unicode="&#xf4;" horiz-adv-x="1337" d="M180 688v678h121v-678v-104v-98q0 -30 1 -78t5 -73.5t11.5 -54t19.5 -49.5q76 -133 330 -133q258 0 329 133q14 25 22.5 54.5t11.5 82t4 83.5q1 15 1 43.5t-1 70.5q-1 84 -1 123v678h121v-678q0 -244 -4 -311q-2 -96 -29 -160q-88 -233 -454 -233q-365 0 -455 233 q-23 63 -29 160q-4 135 -4 311zM444 1763h137l267 -258h-138z" />
<glyph unicode="&#xf5;" horiz-adv-x="440" d="M162 0v983h121v-983h-121z" />
<glyph unicode="&#xf6;" horiz-adv-x="860" d="M115 1108l272 258h86l275 -258h-138l-178 170l-178 -170h-139z" />
<glyph unicode="&#xf7;" horiz-adv-x="860" d="M55 1270q10 6 47 26.5t51.5 27.5t47 21.5t54 17.5t51.5 5t57.5 -6t56.5 -25q4 -2 29.5 -17t34 -19.5t31 -13.5t35.5 -9t33.5 3t39.5 13l133 72l49 -92l-127 -68q-125 -68 -238 -2q-10 6 -36.5 22.5t-40 22.5t-35 13.5t-43 3.5t-45.5 -17l-136 -71z" />
<glyph unicode="&#xf8;" horiz-adv-x="860" d="M90 1243v103h682v-103h-682z" />
<glyph unicode="&#xf9;" horiz-adv-x="860" d="M145 1366h113q0 -96 32 -124t140 -28q111 0 141.5 28t30.5 124h115q0 -139 -66 -199q-66 -57 -219 -57q-162 0 -224.5 58.5t-62.5 197.5z" />
<glyph unicode="&#xfa;" horiz-adv-x="862" d="M350 1288q0 82 82 82t82 -82t-82 -82t-82 82z" />
<glyph unicode="&#xfb;" horiz-adv-x="862" d="M213 1280q0 121 49 171t170 50q119 0 168 -50t49 -171q0 -125 -47 -177t-170 -52t-171 52t-48 177zM305 1278q0 -86 22.5 -112.5t104.5 -26.5t103.5 27.5t21.5 111.5q0 82 -21.5 108.5t-103.5 26.5t-104.5 -26.5t-22.5 -108.5z" />
<glyph unicode="&#xfc;" horiz-adv-x="860" d="M252 -254h80q0 -39 17.5 -52t64.5 -13q49 0 64.5 19t15.5 60q0 14 -4.5 26.5t-8.5 21t-15 13.5t-17.5 8t-21.5 4t-21 1h-25h-23v166h86v-100q68 0 102 -37t34 -101q0 -154 -162 -153q-88 0 -127 31.5t-39 105.5z" />
<glyph unicode="&#xfd;" horiz-adv-x="860" d="M6 1108l258 258h137l-256 -258h-139zM457 1108l258 258h139l-258 -258h-139z" />
<glyph unicode="&#xfe;" horiz-adv-x="860" d="M266 -197q0 115 40 156t147 41v-72q-70 0 -85.5 -21.5t-17.5 -105.5q0 -70 13.5 -95t66.5 -25q49 0 64.5 11t15.5 50h84q0 -74 -38 -103.5t-124 -29.5q-55 0 -91 15.5t-51.5 46t-19.5 59t-4 73.5z" />
<glyph unicode="&#xff;" horiz-adv-x="860" d="M115 1366h137l178 -170l178 170h140l-273 -258h-86z" />
<glyph unicode="&#x152;" horiz-adv-x="1093" d="M106 281q0 98 30 161.5t88.5 94t122 42t155.5 11.5h329v33v29v33q0 9 -1 30.5t-4 33t-8 28t-13 29.5t-21 23q-59 59 -239 60q-51 0 -85 -2t-78 -12.5t-70.5 -29t-45 -54t-18.5 -86.5h-111q0 238 219 274q-45 33 -45 164q0 123 55.5 173t186.5 50q133 0 188.5 -49 t55.5 -174q0 -133 -52 -168q78 -18 131.5 -72.5t67.5 -142.5q8 -43 8 -195v-565h-112v111q-84 -127 -348 -127q-195 0 -290.5 70.5t-95.5 226.5zM231 283q0 -102 56.5 -147.5t197.5 -45.5q119 0 189.5 22.5t104.5 79t43 118t9 173.5h-337q-139 0 -201 -38.5t-62 -161.5z M414 1128q0 -86 25.5 -110.5t115.5 -24.5q86 0 112.5 25.5t26.5 109.5q0 88 -26.5 117t-114.5 29t-113.5 -29t-25.5 -117z" />
<glyph unicode="&#x153;" horiz-adv-x="1101" d="M145 315v93v36v539h119v-518v-49q0 -78 1 -114t13.5 -85t38 -69.5t74.5 -37t125 -16.5q63 0 112.5 13.5t82 32t54 57.5t33 66.5t16.5 83.5t6 88t1 100v448h119v-983h-115v115q-98 -131 -317 -131q-76 0 -135.5 14t-97 31.5t-64.5 55.5t-39 64.5t-19.5 82.5t-7.5 83z M372 1108l265 258h137l-264 -258h-138z" />
<glyph unicode="&#x178;" horiz-adv-x="1099" d="M143 315v93v36v539h119v-518v-49q0 -78 1 -114t13.5 -85t38 -69.5t74.5 -37t125 -16.5q63 0 112.5 13.5t82 32t54 57.5t33 66.5t16.5 83.5t6 88t1 100v448h119v-983h-115v115q-98 -131 -317 -131q-76 0 -135.5 14t-97 31.5t-64.5 55.5t-39 64.5t-19.5 82.5t-7.5 83z M248 1288q0 82 82 82t82 -82t-82 -82t-82 82zM688 1288q0 82 82 82t82 -82t-82 -82t-82 82z" />
<glyph unicode="&#x2c6;" horiz-adv-x="1093" d="M106 281q0 98 29 161.5t87.5 94t121 42t154.5 11.5h329v33v29v33q0 9 -1 30.5t-4 33t-8 28t-13 29.5t-21 23q-57 57 -239 58q-68 0 -108 -4t-90 -20.5t-74.5 -55.5t-24.5 -102h-111q0 164 108.5 229t315.5 65q344 0 383 -239q8 -43 8 -195v-565h-112v111 q-84 -127 -349 -127q-195 0 -288 70.5t-93 226.5zM227 283q0 -102 56.5 -147.5t197.5 -45.5q119 0 189.5 22.5t104.5 79t43 118t9 173.5h-338q-139 0 -200.5 -38.5t-61.5 -161.5zM325 1366h137l267 -258h-138z" />
<glyph unicode="&#x2dc;" horiz-adv-x="1130" d="M129 491.5q0 161.5 20.5 253t73.5 146.5q109 109 342.5 108.5t339.5 -108.5q53 -55 73.5 -145.5t20.5 -254t-20.5 -254t-73.5 -145.5q-106 -109 -339.5 -108.5t-342.5 108.5q-53 55 -73.5 146.5t-20.5 253zM248 496q0 -115 7 -173.5t37 -118t96.5 -83t176.5 -23.5 q66 0 114 9.5t82 24.5t56.5 45t34.5 56.5t19.5 74.5t8.5 85t1 103q0 115 -8.5 175t-38 116.5t-95 78t-174.5 21.5q-90 0 -150.5 -18.5t-93 -45t-49 -83t-20.5 -105.5t-4 -139zM379 1366h137l267 -258h-138z" />
<glyph unicode="&#x2000;" horiz-adv-x="884" />
<glyph unicode="&#x2001;" horiz-adv-x="1769" />
<glyph unicode="&#x2002;" horiz-adv-x="884" />
<glyph unicode="&#x2003;" horiz-adv-x="1769" />
<glyph unicode="&#x2004;" horiz-adv-x="589" />
<glyph unicode="&#x2005;" horiz-adv-x="442" />
<glyph unicode="&#x2006;" horiz-adv-x="294" />
<glyph unicode="&#x2007;" horiz-adv-x="294" />
<glyph unicode="&#x2008;" horiz-adv-x="221" />
<glyph unicode="&#x2009;" horiz-adv-x="352" />
<glyph unicode="&#x200a;" horiz-adv-x="98" />
<glyph unicode="&#x2010;" horiz-adv-x="993" d="M184 438v109h623v-109h-623z" />
<glyph unicode="&#x2011;" horiz-adv-x="993" d="M184 438v109h623v-109h-623z" />
<glyph unicode="&#x2012;" horiz-adv-x="993" d="M184 438v109h623v-109h-623z" />
<glyph unicode="&#x2013;" horiz-adv-x="1101" d="M162 0v983h114v-115q98 131 318 131q68 0 121 -9t90 -26.5t64.5 -42t43 -54t26.5 -64.5t13 -74t4 -80q1 -20 1 -41t-1 -43v-47v-518h-118v518v49v84q0 27 -4.5 69t-14.5 60.5t-27.5 44t-44 35.5t-67.5 18.5t-94 8.5q-63 0 -112.5 -13.5t-82.5 -32t-54.5 -56t-32.5 -65.5 t-16 -85t-6 -88t-1 -98v-449h-119zM174 1270q10 6 47 26.5t51.5 27.5t47 21.5t54 17.5t51.5 5t57.5 -6t56.5 -25q4 -2 29.5 -17t34 -19.5t31 -13.5t35.5 -9t33.5 3t39.5 13l133 72l49 -92l-127 -68q-125 -68 -238 -2q-10 6 -36.5 22.5t-40 22.5t-35 13.5t-43 3.5t-45.5 -17 l-136 -71z" />
<glyph unicode="&#x2014;" horiz-adv-x="1130" d="M129 491.5q0 161.5 20.5 253t73.5 146.5q109 109 342.5 108.5t339.5 -108.5q53 -55 73.5 -145.5t20.5 -254t-20.5 -254t-73.5 -145.5q-106 -109 -339.5 -108.5t-342.5 108.5q-53 55 -73.5 146.5t-20.5 253zM248 496q0 -115 7 -173.5t37 -118t96.5 -83t176.5 -23.5 q66 0 114 9.5t82 24.5t56.5 45t34.5 56.5t19.5 74.5t8.5 85t1 103q0 115 -8.5 175t-38 116.5t-95 78t-174.5 21.5q-90 0 -150.5 -18.5t-93 -45t-49 -83t-20.5 -105.5t-4 -139zM346 1108l265 258h137l-264 -258h-138z" />
<glyph unicode="&#x2018;" horiz-adv-x="1097" d="M129 487.5q0 133.5 14.5 218.5t57.5 156.5t128 104t220 32.5q117 0 195.5 -26.5t122.5 -65.5t66.5 -115.5t28 -144t5.5 -184.5h-719q0 -205 57 -287t252 -82q57 0 101 6t89.5 23.5t70 56.5t24.5 99h110q0 -295 -397 -295q-137 0 -224 31.5t-130 103t-57.5 153.5 t-14.5 215.5zM244 1288q0 82 82 82t82 -82t-82 -82t-82 82zM250 571h602q0 180 -64.5 250t-238.5 70q-168 0 -233.5 -75t-65.5 -245zM684 1288q0 82 82 82t82 -82t-82 -82t-82 82z" />
<glyph unicode="&#x2019;" horiz-adv-x="438" d="M27 1108l264 258h137l-264 -258h-137zM168 0v983h119v-983h-119z" />
<glyph unicode="&#x201a;" horiz-adv-x="1312" d="M162 682q0 137 3 203.5t17.5 165t47 144.5t91 97t151.5 69.5t224 18.5q250 0 361.5 -83t111.5 -285h-114q0 145 -79 199.5t-298 54.5q-250 0 -328 -111q-37 -57 -52 -147t-15 -326t15 -325t52 -146q78 -113 328 -113q219 0 298 54.5t79 199.5h114q0 -195 -103 -278.5 t-335 -89.5v-86q66 0 99.5 -37t33.5 -101q0 -78 -36.5 -115.5t-125.5 -37.5q-86 0 -124.5 31.5t-38.5 105.5h79q0 -39 17.5 -52.5t64.5 -13.5q49 0 63.5 19.5t14.5 60.5q0 14 -4 26.5t-8 21t-15.5 13.5t-17.5 8t-21.5 4t-21.5 1h-23h-22v152q-141 6 -235.5 45t-143.5 86 t-72.5 152.5t-27.5 180t-4 234.5z" />
<glyph unicode="&#x201c;" horiz-adv-x="436" d="M25 1366h137l264 -258h-137zM168 0v983h119v-983h-119z" />
<glyph unicode="&#x201d;" horiz-adv-x="436" d="M-92 1108l272 258h86l273 -258h-138l-178 170l-178 -170h-137zM168 0v983h119v-983h-119z" />
<glyph unicode="&#x201e;" horiz-adv-x="1333" d="M188 0v1366h136l704 -1182v1182h115v-1366h-137l-703 1184v-1184h-115zM291 1669q10 6 47 26.5t51.5 27.5t47 21.5t54 17.5t51.5 5t57.5 -6t56.5 -25q4 -2 29.5 -17t34 -19.5t31 -13.5t35.5 -9t33.5 3t39.5 13l133 72l49 -92l-127 -68q-125 -68 -238 -2q-10 6 -36.5 22.5 t-40 22.5t-35 13.5t-43 3.5t-45.5 -17l-136 -71z" />
<glyph unicode="&#x2022;" horiz-adv-x="436" d="M-80 1288q0 82 82 82t82 -82t-82 -82t-82 82zM168 0v983h119v-983h-119zM360 1288q0 82 82 82t82 -82t-82 -82t-82 82z" />
<glyph unicode="&#x2026;" horiz-adv-x="1372" d="M162 680v4q0 305 28 414q51 190 236 250q102 33 258 32q129 0 221 -19.5t148.5 -69.5t89.5 -95t46 -143.5t16 -163t3 -199.5v-4q0 -305 -28 -416q-51 -195 -238 -254q-102 -33 -256 -32.5t-256 37t-155.5 84t-79 155t-29.5 183t-4 237.5zM283 682q0 -238 13 -326t52 -143 q78 -115 338 -115q256 0 336 117q39 55 52 143t13 326t-13 325t-52 142q-78 115 -338 115q-256 0 -336 -117q-39 -55 -52 -142t-13 -325zM383 1687.5q0 81.5 82 81.5t82 -81.5t-82 -81.5t-82 81.5zM823 1687.5q0 81.5 82 81.5t82 -81.5t-82 -81.5t-82 81.5z" />
<glyph unicode="&#x202f;" horiz-adv-x="352" />
<glyph unicode="&#x2039;" horiz-adv-x="1093" d="M106 281q0 98 29 161.5t87.5 94t121 42t154.5 11.5h329v33v29v33q0 9 -1 30.5t-4 33t-8 28t-13 29.5t-21 23q-57 57 -239 58q-68 0 -108 -4t-90 -20.5t-74.5 -55.5t-24.5 -102h-111q0 164 108.5 229t315.5 65q344 0 383 -239q8 -43 8 -195v-565h-112v111 q-84 -127 -349 -127q-195 0 -288 70.5t-93 226.5zM227 283q0 -102 56.5 -147.5t197.5 -45.5q119 0 189.5 22.5t104.5 79t43 118t9 173.5h-338q-139 0 -200.5 -38.5t-61.5 -161.5zM161 1270q10 6 47 26.5t51.5 27.5t47 21.5t54 17.5t51.5 5t57.5 -6t56.5 -25q4 -2 29.5 -17 t34 -19.5t31 -13.5t35.5 -9t33.5 3t39.5 13l133 72l49 -92l-127 -68q-125 -68 -238 -2q-10 6 -36.5 22.5t-40 22.5t-35 13.5t-43 3.5t-45.5 -17l-136 -71z" />
<glyph unicode="&#x203a;" horiz-adv-x="1130" d="M129 491.5q0 161.5 20.5 253t73.5 146.5q109 109 342.5 108.5t339.5 -108.5q53 -55 73.5 -145.5t20.5 -254t-20.5 -254t-73.5 -145.5q-106 -109 -339.5 -108.5t-342.5 108.5q-53 55 -73.5 146.5t-20.5 253zM248 496q0 -115 7 -173.5t37 -118t96.5 -83t176.5 -23.5 q66 0 114 9.5t82 24.5t56.5 45t34.5 56.5t19.5 74.5t8.5 85t1 103q0 115 -8.5 175t-38 116.5t-95 78t-174.5 21.5q-90 0 -150.5 -18.5t-93 -45t-49 -83t-20.5 -105.5t-4 -139zM188 1270q10 6 47 26.5t51.5 27.5t47 21.5t54 17.5t51.5 5t57.5 -6t56.5 -25q4 -2 29.5 -17 t34 -19.5t31 -13.5t35.5 -9t33.5 3t39.5 13l133 72l49 -92l-127 -68q-125 -68 -238 -2q-10 6 -36.5 22.5t-40 22.5t-35 13.5t-43 3.5t-45.5 -17l-136 -71z" />
<glyph unicode="&#x205f;" horiz-adv-x="442" />
<glyph unicode="&#x20ac;" horiz-adv-x="1257" d="M43 0l528 1366h115l528 -1366h-131l-153 403h-608l-152 -403h-127zM324 1687.5q0 81.5 81.5 81.5t81.5 -81.5t-81.5 -81.5t-81.5 81.5zM362 510h527l-262 704zM764 1687.5q0 81.5 82 81.5t82 -81.5t-82 -81.5t-82 81.5z" />
<glyph unicode="&#x2122;" horiz-adv-x="1130" d="M129 491.5q0 161.5 20.5 253t73.5 146.5q109 109 342.5 108.5t339.5 -108.5q53 -55 73.5 -145.5t20.5 -254t-20.5 -254t-73.5 -145.5q-106 -109 -339.5 -108.5t-342.5 108.5q-53 55 -73.5 146.5t-20.5 253zM248 496q0 -115 7 -173.5t37 -118t96.5 -83t176.5 -23.5 q66 0 114 9.5t82 24.5t56.5 45t34.5 56.5t19.5 74.5t8.5 85t1 103q0 115 -8.5 175t-38 116.5t-95 78t-174.5 21.5q-90 0 -150.5 -18.5t-93 -45t-49 -83t-20.5 -105.5t-4 -139zM248 1108l272 258h86l275 -258h-138l-178 170l-178 -170h-139z" />
<glyph unicode="&#xe000;" horiz-adv-x="985" d="M0 985h985v-985h-985v985z" />
<glyph unicode="&#xfb01;" horiz-adv-x="1353" d="M1052 1303q0 78 78 77q80 0 80 -77q0 -80 -80 -80q-78 0 -78 80zM1071 0v983h119v-983h-119zM53 877v106h166v168q0 291 340 291q322 0 328 -223h-117q-6 63 -58.5 86.5t-148.5 23.5q-117 0 -171 -37t-54 -141v-168h389v-106h-389v-877h-119v877h-166z" />
<glyph unicode="&#xfb02;" horiz-adv-x="1353" d="M1071 0v1427h119v-1427h-119zM53 877v106h166v168q0 291 340 291q322 0 328 -223h-117q-6 63 -58.5 86.5t-148.5 23.5q-117 0 -171 -37t-54 -141v-168h389v-106h-389v-877h-119v877h-166z" />
<glyph unicode="&#xfb03;" horiz-adv-x="2263" d="M1962 1303q0 78 78 77q80 0 80 -77q0 -80 -80 -80q-78 0 -78 80zM1981 0v983h119v-983h-119zM962 877v106h166v168q0 291 340 291q322 0 328 -223h-117q-6 63 -58.5 86.5t-148.5 23.5q-117 0 -171 -37t-54 -141v-168h389v-106h-389v-877h-119v877h-166zM53 877v106h166 v168q0 291 340 291q322 0 328 -223h-117q-6 63 -58.5 86.5t-148.5 23.5q-117 0 -171 -37t-54 -141v-168h389v-106h-389v-877h-119v877h-166z" />
<glyph unicode="&#xfb04;" horiz-adv-x="2263" d="M1981 0v1427h119v-1427h-119zM962 877v106h166v168q0 291 340 291q322 0 328 -223h-117q-6 63 -58.5 86.5t-148.5 23.5q-117 0 -171 -37t-54 -141v-168h389v-106h-389v-877h-119v877h-166zM53 877v106h166v168q0 291 340 291q322 0 328 -223h-117q-6 63 -58.5 86.5 t-148.5 23.5q-117 0 -171 -37t-54 -141v-168h389v-106h-389v-877h-119v877h-166z" />
</font>
</defs>
</svg>
